{
DisplayStrings = (
"",
"selbstt\U00E4tig\012rfahrensprinzipien\012zs ZS db\012Schneidbrennen\012Kreissschneidemaschinen\012fl\U00FCssige\012Vrlo"
);
date = "2016-11-08 10:02:54 +0000";
familyName = "Mell Sans ";
featurePrefixes = (
{
automatic = 1;
code = "languagesystem DFLT dflt;\012languagesystem cyrl dflt;\012languagesystem latn dflt;\012languagesystem latn CAT;\012languagesystem latn ROM;\012languagesystem latn MOL;\012languagesystem latn TRK;\012";
name = Languagesystems;
}
);
features = (
{
automatic = 1;
code = "feature locl;\012feature frac;\012";
name = aalt;
},
{
automatic = 1;
code = "script latn;\012language CAT;\012sub  l' periodcentered' l by ldot;\012sub  L' periodcentered' L by Ldot;\012language ROM;\012sub Scedilla by Scommaaccent;\012sub scedilla by scommaaccent;\012sub Tcedilla by Tcommaaccent;\012sub tcedilla by tcommaaccent;\012language MOL;\012sub Scedilla by Scommaaccent;\012sub scedilla by scommaaccent;\012sub Tcedilla by Tcommaaccent;\012sub tcedilla by tcommaaccent;\012language KAZ;\012sub i by idotaccent;\012language TAT;\012sub i by idotaccent;\012language TRK;\012sub i by idotaccent;\012language CRT;\012sub i by idotaccent;\012language AZE;\012sub i by idotaccent;\012";
name = locl;
},
{
automatic = 1;

glyphs = (
{
glyphname = B;
lastChange = "2017-03-03 08:27:30 +0000";
layers = (
{
background = {
paths = (
{
closed = 1;
nodes = (
"290 356 OFFCURVE",
"233 353 OFFCURVE",
"313 362 CURVE",
"367 379 OFFCURVE",
"403 421 OFFCURVE",
"403 508 CURVE SMOOTH",
"403 638 OFFCURVE",
"349 703 OFFCURVE",
"211 701 CURVE SMOOTH",
"141 700 LINE",
"141 700 OFFCURVE",
"138 356 OFFCURVE",
"138 356 CURVE SMOOTH"
);
},
{
closed = 1;
nodes = (
"192 619 LINE SMOOTH",
"280 619 OFFCURVE",
"316 586 OFFCURVE",
"316 513 CURVE SMOOTH",
"316 439 OFFCURVE",
"301 396 OFFCURVE",
"216 396 CURVE SMOOTH",
"121 396 LINE",
"121 619 LINE"
);
}
);
};
components = (
{
name = _I_small;
transform = "{1, 0, 0, 1, 30, 523}";
},
{
name = _I_small;
transform = "{1, 0, 0, 1, 30, 10}";
},
{
name = _I_small;
transform = "{1, 0, 0, 1, 30, 165}";
},
{
name = _I_small;
transform = "{1, 0, 0, 1, 30, 328}";
},
{
name = _I_small;
transform = "{1, 0, 0, 1, 30, 474}";
},
{
name = _curve_B;
transform = "{1, 0, 0, -1, 38, 700}";
}
);
layerId = "7EBE3D46-E53E-419E-A3EC-596DA2EA1E0D";
name = Regular;
paths = (
{
closed = 1;
nodes = (
"171 709 OFFCURVE",
"110 696 OFFCURVE",
"70 692 CURVE",
"70 601 LINE",
"110 610 OFFCURVE",
"156 629 OFFCURVE",
"212 626 CURVE SMOOTH",
"279 623 OFFCURVE",
"336 586 OFFCURVE",
"336 521 CURVE SMOOTH",
"336 437 OFFCURVE",
"284 393 OFFCURVE",
"169 393 CURVE SMOOTH",
"160 393 LINE",
"149 354 LINE",
"285 354 LINE",
"385 366 OFFCURVE",
"440 427 OFFCURVE",
"440 532 CURVE SMOOTH",
"440 646 OFFCURVE",
"359 706 OFFCURVE",
"241 708 CURVE SMOOTH"
);
}
);
width = 540;
}
);
unicode = 0042;
},
{
glyphname = G;
lastChange = "2016-12-07 10:55:26 +0000";
layers = (
{
components = (
{
name = _C_curve;
transform = "{1, 0, 0, 1, 29, 44}";
},
{
name = _O;
transform = "{1, 0, 0, -1, 11, 698}";
},
{
name = "_dash-small";
transform = "{1, 0, 0, 1, 159, 22}";
},
{
name = _I_small;
transform = "{1, 0, 0, 1, 358, 79}";
},
{
name = "_dash-small";
transform = "{1, 0, 0, 1, 109, 22}";
}
);
layerId = "7EBE3D46-E53E-419E-A3EC-596DA2EA1E0D";
name = Regular;
paths = (
{
closed = 1;
nodes = (
"491 188 LINE",
"419 109 OFFCURVE",
"361 84 OFFCURVE",
"302 84 CURVE SMOOTH",
"294 84 LINE",
"287 -8 LINE",
"303 -9 LINE",
"389 -9 OFFCURVE",
"428 10 OFFCURVE",
"491 70 CURVE"
);
}
);
width = 561;
}
);
unicode = 0047;
},
{
glyphname = K;
lastChange = "2017-03-03 08:33:17 +0000";
layers = (
{
components = (
{
name = _I;
transform = "{1, 0, 0, 1, 30, 0}";
}
);
layerId = "7EBE3D46-E53E-419E-A3EC-596DA2EA1E0D";
name = Regular;
paths = (
{
closed = 1;
nodes = (
"211 337 LINE SMOOTH",
"422 1 LINE",
"528 1 LINE",
"253 425 LINE SMOOTH"
);
},
{
closed = 1;
nodes = (
"525 701 LINE",
"408 701 LINE",
"161 364 LINE",
"97 394 LINE",
"90 248 LINE",
"157 228 LINE"
);
}
);
width = 542;
}
);
unicode = 004B;
},
{
glyphname = Q;
lastChange = "2017-01-08 17:44:33 +0000";
layers = (
{
components = (
{
name = O;
transform = "{1, 0, 0, 1, 10, 0}";
}
);
layerId = "7EBE3D46-E53E-419E-A3EC-596DA2EA1E0D";
name = Regular;
paths = (
{
closed = 1;
nodes = (
"468 -50 LINE",
"547 22 LINE",
"349 249 LINE",
"288 188 LINE"
);
},
{
closed = 1;
nodes = (
"468 -50 LINE",
"547 22 LINE",
"349 249 LINE",
"288 188 LINE"
);
}
);
width = 606;
}
);
unicode = 0051;
},
{
glyphname = R;
lastChange = "2017-02-03 07:31:22 +0000";
layers = (
{
components = (
{
name = _I_small;
transform = "{1, 0, 0, 1, 30, 522}";
},
{
name = _I_small;
transform = "{1, 0, 0, 1, 30, -1}";
},
{
name = _I_small;
transform = "{1, 0, 0, 1, 30, 164}";
},
{
name = _I_small;
transform = "{1, 0, 0, 1, 30, 327}";
},
{
name = _I_small;
transform = "{1, 0, 0, 1, 30, 473}";
},
{
name = _curve_B;
transform = "{1, 0, 0, 1, 38, 1}";
},
{
name = _curve_B;
transform = "{1, 0, 0, -1, 38, 1011}";
}
);
layerId = "7EBE3D46-E53E-419E-A3EC-596DA2EA1E0D";
name = Regular;
paths = (
{
closed = 1;
nodes = (
"308 204 LINE SMOOTH",
"400 0 LINE",
"495 0 LINE",
"488 16 LINE",
"408 195 LINE SMOOTH"
);
},
{
closed = 1;
nodes = (
"251 306 OFFCURVE",
"272 281 OFFCURVE",
"308 204 CURVE",
"348 200 OFFCURVE",
"438 132 OFFCURVE",
"408 195 CURVE",
"387 238 OFFCURVE",
"355 334 OFFCURVE",
"262 316 CURVE SMOOTH",
"211 306 LINE"
);
}
);
width = 512;
}
);
unicode = 0052;
},
{
glyphname = S;
lastChange = "2017-02-23 12:20:54 +0000";
layers = (
{
layerId = "7EBE3D46-E53E-419E-A3EC-596DA2EA1E0D";
name = Regular;
paths = (
{
closed = 1;
nodes = (
"212 426 OFFCURVE",
"159 456 OFFCURVE",
"158 515 CURVE SMOOTH",
"157 570 OFFCURVE",
"192 616 OFFCURVE",
"262 616 CURVE SMOOTH",
"297 616 OFFCURVE",
"301 706 OFFCURVE",
"263 706 CURVE SMOOTH",
"161 706 OFFCURVE",
"60 640 OFFCURVE",
"60 517 CURVE SMOOTH",
"60 406 OFFCURVE",
"153 350 OFFCURVE",
"228 324 CURVE SMOOTH",
"237 321 OFFCURVE",
"304 297 OFFCURVE",
"312 294 CURVE SMOOTH",
"361 274 OFFCURVE",
"385 240 OFFCURVE",
"384 184 CURVE SMOOTH",
"383 126 OFFCURVE",
"331 82 OFFCURVE",
"252 82 CURVE SMOOTH",
"250 82 LINE SMOOTH",
"184 82 OFFCURVE",
"140 106 OFFCURVE",
"101 143 CURVE",
"58 63 LINE",
"90 20 OFFCURVE",
"150 -13 OFFCURVE",
"249 -12 CURVE",
"400 -12 OFFCURVE",
"482 68 OFFCURVE",
"484 183 CURVE SMOOTH",
"486 301 OFFCURVE",
"427 350 OFFCURVE",
"315 389 CURVE SMOOTH",
"305 392 OFFCURVE",
"294 396 OFFCURVE",
"262 408 CURVE SMOOTH"
);
},
{
closed = 1;
nodes = (
"331 616 OFFCURVE",
"373 587 OFFCURVE",
"408 568 CURVE",
"426 661 LINE",
"388 684 OFFCURVE",
"351 706 OFFCURVE",
"265 706 CURVE",
"266 616 LINE"
);
}
);
width = 544;
}
);
unicode = 0053;
},
{
glyphname = Y;
lastChange = "2017-02-21 06:25:17 +0000";
layers = (
{
layerId = "7EBE3D46-E53E-419E-A3EC-596DA2EA1E0D";
name = Regular;
paths = (
{
closed = 1;
nodes = (
"572 700 LINE",
"459 700 LINE",
"280 382 LINE",
"128 699 LINE",
"15 699 LINE",
"233 291 LINE",
"233 1 LINE",
"326 1 LINE",
"326 292 LINE"
);
}
);
width = 587;
}
);
leftKerningGroup = T;
rightKerningGroup = T;
unicode = 0059;
},
{
glyphname = a;
lastChange = "2017-02-27 14:43:25 +0000";
layers = (
{
components = (
{
name = _I_small;
transform = "{1, 0, 0, 1, 310, 50}";
},
{
name = _I_small;
transform = "{1, 0, 0, 1, 310, 127}";
}
);
layerId = "7EBE3D46-E53E-419E-A3EC-596DA2EA1E0D";
name = Regular;
paths = (
{
closed = 1;
nodes = (
"369 134 LINE",
"331 104 OFFCURVE",
"285 75 OFFCURVE",
"222 75 CURVE SMOOTH",
"178 75 OFFCURVE",
"139 95 OFFCURVE",
"139 149 CURVE SMOOTH",
"139 197 OFFCURVE",
"177 223 OFFCURVE",
"224 223 CURVE SMOOTH",
"227 223 OFFCURVE",
"281 223 OFFCURVE",
"284 223 CURVE SMOOTH",
"317 223 OFFCURVE",
"334 216 OFFCURVE",
"353 207 CURVE",
"363 273 LINE",
"352 280 OFFCURVE",
"306 297 OFFCURVE",
"261 297 CURVE SMOOTH",
"248 297 OFFCURVE",
"214 297 OFFCURVE",
"201 297 CURVE SMOOTH",
"110 297 OFFCURVE",
"41 251 OFFCURVE",
"40 146 CURVE",
"40 36 OFFCURVE",
"126 -11 OFFCURVE",
"202 -11 CURVE SMOOTH",
"269 -11 OFFCURVE",
"325 16 OFFCURVE",
"353 62 CURVE"
);
},
{
closed = 1;
nodes = (
"350 0 LINE",
"443 0 LINE",
"443 117 LINE",
"350 177 LINE"
);
},
{
closed = 1;
nodes = (
"350 255 OFFCURVE",
"443 212 OFFCURVE",
"443 294 CURVE",
"443 436 OFFCURVE",
"365 506 OFFCURVE",
"237 506 CURVE SMOOTH",
"148 506 OFFCURVE",
"108 482 OFFCURVE",
"81 453 CURVE",
"124 374 LINE",
"155 403 OFFCURVE",
"174 418 OFFCURVE",
"236 418 CURVE SMOOTH",
"296 418 OFFCURVE",
"350 381 OFFCURVE",
"350 293 CURVE SMOOTH"
);
}
);
width = 514;
}
);
leftKerningGroup = e;
rightKerningGroup = e;
unicode = 0061;
},
{
glyphname = d;
lastChange = "2017-02-02 09:20:09 +0000";
layers = (
{
components = (
{
name = _I_small;
transform = "{1, 0, 0, 1, 340, 582}";
},
{
name = _I_small;
transform = "{1, 0, 0, 1, 340, 98}";
},
{
name = _I_small;
transform = "{1, 0, 0, 1, 340, 426}";
},
{
name = _I_small;
transform = "{1, 0, 0, 1, 340, 572}";
},
{
name = _I_small;
transform = "{1, 0, 0, 1, 340, 533}";
},
{
name = _I_small;
transform = "{1, 0, 0, 1, 340, 165}";
},
{
name = _I_small;
transform = "{1, 0, 0, 1, 340, 328}";
},
{
name = _I_small;
transform = "{1, 0, 0, 1, 340, 474}";
},
{
name = _curve_b;
transform = "{-1, 0, 0, -1, 509, 500}";
}
);
layerId = "7EBE3D46-E53E-419E-A3EC-596DA2EA1E0D";
name = Regular;
paths = (
{
closed = 1;
nodes = (
"380 431 LINE",
"380 264 LINE",
"473 264 LINE",
"473 431 LINE"
);
},
{
closed = 1;
nodes = (
"380 168 LINE",
"380 1 LINE",
"473 1 LINE",
"473 168 LINE"
);
}
);
width = 543;
}
);
leftKerningGroup = e;
rightKerningGroup = h;
unicode = 0064;
},
{
glyphname = eth;
lastChange = "2016-11-10 14:51:17 +0000";
layers = (
{
components = (
{
name = six;
transform = "{-1, 0, 0, 1, 558, 0}";
}
);
layerId = "7EBE3D46-E53E-419E-A3EC-596DA2EA1E0D";
name = Regular;
paths = (
{
closed = 1;
nodes = (
"451 725 LINE",
"350 744 LINE",
"145 515 LINE SMOOTH",
"255 500 LINE SMOOTH"
);
}
);
width = 558;
}
);
unicode = 00F0;
},
{
glyphname = e;
lastChange = "2017-01-26 16:58:47 +0000";
layers = (
{
components = (
{
name = _o_curve;
transform = "{1, 0, 0, 1, 6, 0}";
},
{
name = _o_curve;
transform = "{-1, 0, 0, 1, 505, 0}";
},
{
name = "_dash-small";
transform = "{1, 0, 0, 1, -7, 3}";
},
{
name = _dash;
transform = "{1, 0, 0, 1, -87, 3}";
},
{
name = _curve_cursive;
transform = "{1, 0, 0, 1, -10, -1}";
}
);
layerId = "7EBE3D46-E53E-419E-A3EC-596DA2EA1E0D";
name = Regular;
paths = (
{
closed = 1;
nodes = (
"299 225 LINE",
"461 225 LINE",
"461 273 LINE",
"299 303 LINE"
);
}
);
width = 511;
}
);
leftKerningGroup = e;
rightKerningGroup = e;
unicode = 0065;
},
{
glyphname = g;
lastChange = "2017-02-23 12:50:30 +0000";
layers = (
{
layerId = "7EBE3D46-E53E-419E-A3EC-596DA2EA1E0D";
name = Regular;
paths = (
{
closed = 1;
nodes = (
"455 419 LINE",
"474 500 LINE",
"236 500 LINE SMOOTH",
"212 500 OFFCURVE",
"223 472 OFFCURVE",
"246 419 CURVE"
);
},
{
closed = 1;
nodes = (
"391 -211 OFFCURVE",
"473 -149 OFFCURVE",
"473 -60 CURVE SMOOTH",
"473 17 OFFCURVE",
"411 90 OFFCURVE",
"277 90 CURVE SMOOTH",
"151 90 OFFCURVE",
"159 139 OFFCURVE",
"182 169 CURVE",
"119 193 LINE",
"74 151 OFFCURVE",
"68 78 OFFCURVE",
"141 52 CURVE",
"141 50 LINE",
"110 47 OFFCURVE",
"40 14 OFFCURVE",
"40 -67 CURVE",
"41 -145 OFFCURVE",
"59 -211 OFFCURVE",
"234 -211 CURVE",
"279 -211 LINE"
);
},
{
closed = 1;
nodes = (
"255 -121 LINE SMOOTH",
"175 -121 OFFCURVE",
"134 -107 OFFCURVE",
"133 -61 CURVE",
"134 -14 OFFCURVE",
"175 0 OFFCURVE",
"255 0 CURVE SMOOTH",
"258 0 LINE SMOOTH",
"318 0 OFFCURVE",
"379 -14 OFFCURVE",
"380 -61 CURVE SMOOTH",
"379 -107 OFFCURVE",
"318 -121 OFFCURVE",
"258 -121 CURVE SMOOTH"
);
},
{
closed = 1;
nodes = (
"455 444 OFFCURVE",
"338 459 OFFCURVE",
"256 460 CURVE",
"257 500 LINE",
"248 500 LINE SMOOTH",
"119 500 OFFCURVE",
"54 422 OFFCURVE",
"54 326 CURVE",
"57 231 OFFCURVE",
"119 155 OFFCURVE",
"248 155 CURVE SMOOTH",
"252 155 LINE SMOOTH",
"254 155 OFFCURVE",
"255 155 OFFCURVE",
"257 155 CURVE SMOOTH",
"261 155 LINE SMOOTH",
"390 155 OFFCURVE",
"455 231 OFFCURVE",
"455 327 CURVE"
);
},
{
closed = 1;
nodes = (
"255 225 LINE SMOOTH",
"255 225 OFFCURVE",
"254 225 OFFCURVE",
"254 225 CURVE SMOOTH",
"249 225 LINE SMOOTH",
"169 225 OFFCURVE",
"147 264 OFFCURVE",
"147 321 CURVE",
"147 377 OFFCURVE",
"169 419 OFFCURVE",
"249 419 CURVE SMOOTH",
"254 419 LINE SMOOTH",
"254 419 OFFCURVE",
"255 419 OFFCURVE",
"255 419 CURVE SMOOTH",
"260 419 LINE SMOOTH",
"340 419 OFFCURVE",
"362 377 OFFCURVE",
"362 321 CURVE SMOOTH",
"362 264 OFFCURVE",
"340 225 OFFCURVE",
"260 225 CURVE SMOOTH"
);
}
);
width = 514;
}
);
leftKerningGroup = e;
unicode = 0067;
},
{
glyphname = k;
lastChange = "2017-01-25 09:33:20 +0000";
layers = (
{
components = (
{
name = _I_dbh;
transform = "{1, 0, 0, 1, 30, 0}";
},
{
name = _x;
transform = "{1, 0, 0, 1, -131, 0}";
}
);
layerId = "7EBE3D46-E53E-419E-A3EC-596DA2EA1E0D";
name = Regular;
paths = (
{
closed = 1;
nodes = (
"150 106 LINE SMOOTH",
"464 498 LINE",
"347 498 LINE",
"162 255 LINE",
"118 254 LINE SMOOTH"
);
}
);
width = 505;
}
);
leftKerningGroup = h;
rightKerningGroup = c;
unicode = 006B;
},
{
glyphname = m;
lastChange = "2017-02-23 12:19:00 +0000";
layers = (
{
components = (
{
name = "_i-dotless";
transform = "{1, 0, 0, 1, 3, 0}";
},
{
name = _m_curve;
transform = "{1, 0, 0, 1, 49, 0}";
}
);
layerId = "7EBE3D46-E53E-419E-A3EC-596DA2EA1E0D";
name = Regular;
paths = (
{
closed = 1;
nodes = (
"468 511 OFFCURVE",
"407 433 OFFCURVE",
"388 333 CURVE",
"438 293 LINE",
"440 394 OFFCURVE",
"483 419 OFFCURVE",
"531 419 CURVE SMOOTH",
"585 419 OFFCURVE",
"621 389 OFFCURVE",
"621 283 CURVE SMOOTH",
"621 1 LINE",
"714 1 LINE",
"714 293 LINE",
"712 429 OFFCURVE",
"673 511 OFFCURVE",
"551 511 CURVE SMOOTH"
);
}
);
width = 784;
}
);
leftKerningGroup = n;
rightKerningGroup = n;
unicode = 006D;
},
{
glyphname = r;
lastChange = "2017-01-25 09:17:11 +0000";
layers = (
{
components = (
{
name = "_i-dotless";
transform = "{1, 0, 0, 1, 3, 0}";
}
);
layerId = "7EBE3D46-E53E-419E-A3EC-596DA2EA1E0D";
name = Regular;
paths = (
{
closed = 1;
nodes = (
"367 503 LINE",
"350 508 OFFCURVE",
"331 510 OFFCURVE",
"311 510 CURVE SMOOTH",
"239 510 OFFCURVE",
"176 464 OFFCURVE",
"158 413 CURVE",
"122 294 LINE",
"163 242 LINE",
"163 367 OFFCURVE",
"217 416 OFFCURVE",
"307 416 CURVE SMOOTH",
"319 416 OFFCURVE",
"330 414 OFFCURVE",
"339 411 CURVE"
);
}
);
width = 397;
}
);
leftKerningGroup = n;
rightKerningGroup = f;
unicode = 0072;
},
{
glyphname = s;
lastChange = "2017-02-27 19:42:49 +0000";
layers = (
{
components = (
{
name = _c;
transform = "{1, 0, 0, 1, -60, -159}";
}
);
layerId = "7EBE3D46-E53E-419E-A3EC-596DA2EA1E0D";
name = Regular;
paths = (
{
closed = 1;
nodes = (
"165 82 OFFCURVE",
"121 91 OFFCURVE",
"82 126 CURVE",
"40 48 LINE",
"78 12 OFFCURVE",
"119 -7 OFFCURVE",
"211 -7 CURVE SMOOTH",
"323 -7 OFFCURVE",
"394 52 OFFCURVE",
"394 139 CURVE SMOOTH",
"394 222 OFFCURVE",
"352 251 OFFCURVE",
"267 280 CURVE SMOOTH",
"257 283 OFFCURVE",
"224 295 OFFCURVE",
"214 298 CURVE SMOOTH",
"160 314 OFFCURVE",
"143 339 OFFCURVE",
"143 367 CURVE SMOOTH",
"143 405 OFFCURVE",
"177 416 OFFCURVE",
"217 416 CURVE SMOOTH",
"259 416 OFFCURVE",
"283 506 OFFCURVE",
"214 506 CURVE SMOOTH",
"116 506 OFFCURVE",
"46 458 OFFCURVE",
"46 376 CURVE SMOOTH",
"46 297 OFFCURVE",
"86 250 OFFCURVE",
"158 229 CURVE SMOOTH",
"165 227 OFFCURVE",
"232 205 OFFCURVE",
"239 202 CURVE SMOOTH",
"283 186 OFFCURVE",
"303 172 OFFCURVE",
"303 143 CURVE SMOOTH",
"303 98 OFFCURVE",
"262 82 OFFCURVE",
"218 82 CURVE SMOOTH"
);
}
);
width = 434;
}
);
leftKerningGroup = e;
rightKerningGroup = e;
unicode = 0073;
},
{
glyphname = germandbls;
lastChange = "2017-01-25 09:27:09 +0000";
layers = (
{
layerId = "7EBE3D46-E53E-419E-A3EC-596DA2EA1E0D";
name = Regular;
paths = (
{
closed = 1;
nodes = (
"527 269 OFFCURVE",
"349 296 OFFCURVE",
"349 374 CURVE SMOOTH",
"349 448 OFFCURVE",
"481 450 OFFCURVE",
"481 571 CURVE SMOOTH",
"481 657 OFFCURVE",
"423 713 OFFCURVE",
"293 713 CURVE SMOOTH",
"163 713 OFFCURVE",
"70 646 OFFCURVE",
"70 504 CURVE SMOOTH",
"70 0 LINE",
"168 0 LINE",
"168 485 LINE SMOOTH",
"168 524 OFFCURVE",
"170 548 OFFCURVE",
"176 558 CURVE SMOOTH",
"181 567 OFFCURVE",
"189 578 OFFCURVE",
"199 588 CURVE SMOOTH",
"220 610 OFFCURVE",
"249 620 OFFCURVE",
"285 620 CURVE SMOOTH",
"349 620 OFFCURVE",
"384 603 OFFCURVE",
"383 564 CURVE SMOOTH",
"383 484 OFFCURVE",
"252 483 OFFCURVE",
"252 370 CURVE SMOOTH",
"252 305 OFFCURVE",
"296 268 OFFCURVE",
"340 236 CURVE SMOOTH",
"371 214 OFFCURVE",
"400 197 OFFCURVE",
"414 163 CURVE",
"438 96 OFFCURVE",
"395 82 OFFCURVE",
"326 79 CURVE",
"300 79 OFFCURVE",
"267 83 OFFCURVE",
"251 90 CURVE",
"251 0 LINE",
"269 -3 OFFCURVE",
"305 -8 OFFCURVE",
"340 -8 CURVE SMOOTH",
"477 -8 OFFCURVE",
"527 70 OFFCURVE",
"527 139 CURVE SMOOTH"
);
}
);
width = 597;
}
);
leftKerningGroup = h;
rightKerningGroup = c;
unicode = 00DF;
},
{
glyphname = t;
lastChange = "2017-02-23 16:29:55 +0000";
layers = (
{
components = (
{
name = _curve_lower;
transform = "{1, 0, 0, 1, 28, -18}";
}
);
hints = (
{
horizontal = 1;
place = "{420.000000, 80.000000}";
}
);
layerId = "7EBE3D46-E53E-419E-A3EC-596DA2EA1E0D";
name = Regular;
paths = (
{
closed = 1;
nodes = (
"50 454 LINE",
"50 412 LINE",
"131 412 LINE",
"131 222 LINE SMOOTH",
"131 93 OFFCURVE",
"224 141 OFFCURVE",
"224 222 CURVE SMOOTH",
"224 412 LINE",
"381 412 LINE",
"381 500 LINE",
"224 500 LINE",
"224 610 LINE",
"187 610 LINE"
);
}
);
width = 481;
}
);
leftKerningGroup = c;
rightKerningGroup = c;
unicode = 0074;
},
{
glyphname = u;
lastChange = "2017-01-30 18:14:46 +0000";
layers = (
{
components = (
{
name = "_i-dotless";
transform = "{1, 0, 0, 1, 306, 0}";
}
);
layerId = "7EBE3D46-E53E-419E-A3EC-596DA2EA1E0D";
name = Regular;
paths = (
{
closed = 1;
nodes = (
"330 -9 OFFCURVE",
"384 69 OFFCURVE",
"403 169 CURVE",
"373 209 LINE",
"371 108 OFFCURVE",
"315 83 OFFCURVE",
"267 83 CURVE SMOOTH",
"213 83 OFFCURVE",
"163 113 OFFCURVE",
"163 219 CURVE SMOOTH",
"163 501 LINE",
"70 501 LINE",
"70 199 LINE",
"72 63 OFFCURVE",
"125 -9 OFFCURVE",
"247 -9 CURVE SMOOTH"
);
}
);
width = 536;
}
);
leftKerningGroup = n;
rightKerningGroup = n;
unicode = 0075;
},
{
glyphname = y;
lastChange = "2017-02-27 19:48:26 +0000";
layers = (
{
layerId = "7EBE3D46-E53E-419E-A3EC-596DA2EA1E0D";
name = Regular;
paths = (
{
closed = 1;
nodes = (
"481 500 LINE",
"379 500 LINE",
"206 -49 LINE SMOOTH",
"186 -113 OFFCURVE",
"150 -122 OFFCURVE",
"108 -108 CURVE",
"117 -200 LINE",
"194 -212 OFFCURVE",
"250 -173 OFFCURVE",
"277 -93 CURVE SMOOTH"
);
},
{
closed = 1;
nodes = (
"142 500 LINE",
"30 500 LINE",
"203 45 LINE SMOOTH",
"216 10 OFFCURVE",
"216 -19 OFFCURVE",
"206 -50 CURVE",
"265 52 LINE",
"273 124 OFFCURVE",
"250 174 OFFCURVE",
"234 221 CURVE"
);
}
);
width = 511;
}
);
leftKerningGroup = v;
rightKerningGroup = v;
unicode = 0079;
},
{
glyphname = y.001;
lastChange = "2017-01-25 08:59:40 +0000";
layers = (
{
layerId = "7EBE3D46-E53E-419E-A3EC-596DA2EA1E0D";
name = Regular;
paths = (
{
closed = 1;
nodes = (
"13 500 LINE",
"183 0 LINE",
"241 0 LINE",
"260 104 LINE",
"243 103 LINE SMOOTH",
"115 500 LINE"
);
},
{
closed = 1;
nodes = (
"464 500 LINE",
"362 500 LINE",
"198 -48 LINE SMOOTH",
"179 -112 OFFCURVE",
"143 -122 OFFCURVE",
"101 -108 CURVE",
"110 -200 LINE",
"187 -212 OFFCURVE",
"244 -173 OFFCURVE",
"270 -93 CURVE SMOOTH"
);
}
);
width = 478;
}
);
leftKerningGroup = v;
rightKerningGroup = v;
},
{
glyphname = "De-cy";
lastChange = "2016-12-21 07:43:12 +0000";
layers = (
{
components = (
{
name = _I_small;
transform = "{1, 0, 0, 1, 97, 533}";
},
{
name = _I_small;
transform = "{1, 0, 0, 1, 97, 328}";
},
{
name = _I_small;
transform = "{1, 0, 0, 1, 97, 474}";
},
{
name = _I;
transform = "{1, 0, 0, 1, 417, 0}";
},
{
name = _EF_horizontal;
transform = "{1, 0, 0, 1, 260, -313}";
},
{
name = _EF_horizontal;
transform = "{1, 0, 0, 1, -112, -313}";
},
{
name = _EF_horizontal;
transform = "{1, 0, 0, 1, 10, 308}";
},
{
name = _EF_horizontal;
transform = "{1, 0, 0, 1, 140, 308}";
},
{
name = _EF_horizontal;
transform = "{1, 0, 0, 1, 66, -313}";
},
{
name = _D_cyr;
transform = "{-1, 0, 0, 1, 672, 0}";
},
{
name = _D_cyr;
transform = "{1, 0, 0, 1, -43, -1}";
}
);
layerId = "7EBE3D46-E53E-419E-A3EC-596DA2EA1E0D";
name = Regular;
paths = (
{
closed = 1;
nodes = (
"46 52 OFFCURVE",
"46 68 OFFCURVE",
"74 68 CURVE SMOOTH",
"131 68 OFFCURVE",
"230 60 OFFCURVE",
"230 186 CURVE SMOOTH",
"230 355 LINE",
"137 355 LINE",
"137 178 LINE SMOOTH",
"137 121 OFFCURVE",
"104 81 OFFCURVE",
"21 81 CURVE",
"24 58 LINE"
);
}
);
width = 629;
}
);
unicode = 0414;
},
{
glyphname = "be-cy";
lastChange = "2017-01-25 09:00:20 +0000";
layers = (
{
components = (
{
name = _o_curve;
transform = "{-1, -0, 0, -1, 532, 495}";
},
{
name = _o_curve;
transform = "{1, 0, 0, -1, 26, 495}";
},
{
name = _o_curve;
transform = "{-1, 0, 0, 1, 532, -50}";
}
);
layerId = "7EBE3D46-E53E-419E-A3EC-596DA2EA1E0D";
name = Regular;
paths = (
{
closed = 1;
nodes = (
"172 406 LINE SMOOTH",
"182 515 OFFCURVE",
"185 653 OFFCURVE",
"456 613 CURVE",
"436 698 LINE",
"118 748 OFFCURVE",
"71 551 OFFCURVE",
"71 355 CURVE SMOOTH",
"71 328 OFFCURVE",
"70 261 OFFCURVE",
"70 242 CURVE",
"157 237 LINE"
);
},
{
closed = 1;
nodes = (
"283 461 LINE",
"280 461 OFFCURVE",
"277 461 OFFCURVE",
"274 461 CURVE SMOOTH",
"187 461 OFFCURVE",
"131 380 OFFCURVE",
"131 242 CURVE",
"131 212 OFFCURVE",
"163 177 OFFCURVE",
"163 235 CURVE SMOOTH",
"163 312 OFFCURVE",
"195 371 OFFCURVE",
"275 371 CURVE SMOOTH",
"277 371 OFFCURVE",
"279 371 OFFCURVE",
"281 371 CURVE"
);
}
);
width = 558;
}
);
leftKerningGroup = e;
rightKerningGroup = e;
unicode = 0431;
},
{
glyphname = "che-cy";
lastChange = "2017-01-25 09:05:33 +0000";
layers = (
{
components = (
{
name = _I_small;
transform = "{1, 0, 0, 1, 325, 0}";
},
{
name = _I_small;
transform = "{1, 0, 0, 1, 325, 165}";
},
{
name = _I_small;
transform = "{1, 0, 0, 1, 325, 329}";
},
{
name = _I_small;
transform = "{1, 0, 0, 1, 30, 332}";
}
);
layerId = "7EBE3D46-E53E-419E-A3EC-596DA2EA1E0D";
name = Regular;
paths = (
{
closed = 1;
nodes = (
"163 403 OFFCURVE",
"70 421 OFFCURVE",
"70 335 CURVE SMOOTH",
"70 223 OFFCURVE",
"131 162 OFFCURVE",
"269 172 CURVE SMOOTH",
"418 183 LINE",
"403 264 LINE",
"288 254 LINE SMOOTH",
"200 246 OFFCURVE",
"163 263 OFFCURVE",
"163 336 CURVE SMOOTH"
);
}
);
width = 528;
}
);
leftKerningGroup = e;
rightKerningGroup = n;
unicode = 0447;
},
{
glyphname = "ia-cy";
lastChange = "2017-01-25 09:07:00 +0000";
layers = (
{
components = (
{
name = "_i-dotless";
transform = "{1, 0, 0, 1, 269, 0}";
},
{
name = _ya_cyr;
transform = "{1, 0, 0, 1, -30, -120}";
}
);
layerId = "7EBE3D46-E53E-419E-A3EC-596DA2EA1E0D";
name = Regular;
paths = (
{
closed = 1;
nodes = (
"225 111 CURVE SMOOTH",
"258 168 OFFCURVE",
"303 155 OFFCURVE",
"337 157 CURVE SMOOTH",
"349 158 OFFCURVE",
"377 182 OFFCURVE",
"346 190 CURVE SMOOTH",
"334 193 OFFCURVE",
"203 175 OFFCURVE",
"199 175 CURVE SMOOTH",
"132 168 OFFCURVE",
"126 107 OFFCURVE",
"79 16 CURVE",
"79 0 LINE",
"170 0 LINE",
"185 27 OFFCURVE",
"205 77 OFFCURVE"
);
}
);
width = 499;
}
);
leftKerningGroup = e;
rightKerningGroup = n;
unicode = 044F;
},
{
glyphname = one;
lastChange = "2017-01-31 11:11:00 +0000";
layers = (
{
components = (
{
name = _I_small;
transform = "{1, 0, 0, 1, 109, 3}";
},
{
name = _I_small;
transform = "{1, 0, 0, 1, 109, 168}";
},
{
name = _I_small;
transform = "{1, 0, 0, 1, 109, 331}";
},
{
name = _I_small;
transform = "{1, 0, 0, 1, 109, 477}";
},
{
name = "_dash-small";
transform = "{1, 0, 0, 1, -9, -219}";
},
{
name = "_dash-small";
transform = "{1, 0, 0, 1, -92, -219}";
}
);
layerId = "7EBE3D46-E53E-419E-A3EC-596DA2EA1E0D";
name = Regular;
paths = (
{
closed = 1;
nodes = (
"40 579 LINE",
"242 622 LINE",
"242 700 LINE",
"202 700 LINE",
"40 660 LINE"
);
}
);
width = 363;
}
);
unicode = 0031;
},
{
glyphname = five;
lastChange = "2017-01-31 11:10:39 +0000";
layers = (
{
components = (
{
name = _I_small;
transform = "{1, 0, 0, 1, 26, 385}";
},
{
name = _I_small;
transform = "{1, 0, 0, 1, 26, 532}";
},
{
name = _EF_horizontal;
transform = "{1, 0, 0, 1, 25, 307}";
},
{
name = _EF_horizontal;
transform = "{1, 0, 0, 1, -54, 307}";
},
{
name = _curve_cursive;
transform = "{-1, 0, 0, 1, 467, 0}";
}
);
layerId = "7EBE3D46-E53E-419E-A3EC-596DA2EA1E0D";
name = Regular;
paths = (
{
closed = 1;
nodes = (
"313 227 LINE",
"313 102 OFFCURVE",
"407 95 OFFCURVE",
"407 252 CURVE SMOOTH",
"407 369 OFFCURVE",
"347 471 OFFCURVE",
"211 471 CURVE SMOOTH",
"125 471 OFFCURVE",
"97 425 OFFCURVE",
"66 406 CURVE",
"66 356 LINE",
"96 356 LINE",
"96 356 OFFCURVE",
"122 386 OFFCURVE",
"200 386 CURVE SMOOTH",
"272 386 OFFCURVE",
"313 335 OFFCURVE",
"313 254 CURVE SMOOTH"
);
}
);
width = 447;
}
);
unicode = 0035;
},
{
glyphname = six;
lastChange = "2017-01-31 11:13:44 +0000";
layers = (
{
components = (
{
name = _o_curve;
transform = "{-1, -0, 0, -1, 502, 495}";
},
{
name = _o_curve;
transform = "{1, 0, 0, -1, -4, 495}";
}
);
layerId = "7EBE3D46-E53E-419E-A3EC-596DA2EA1E0D";
name = Regular;
paths = (
{
closed = 1;
nodes = (
"123 295 LINE SMOOTH",
"123 419 OFFCURVE",
"146 592 OFFCURVE",
"283 596 CURVE SMOOTH",
"315 597 OFFCURVE",
"331 595 OFFCURVE",
"357 582 CURVE",
"387 679 LINE",
"352 691 OFFCURVE",
"326 693 OFFCURVE",
"276 693 CURVE SMOOTH",
"93 693 OFFCURVE",
"40 479 OFFCURVE",
"40 325 CURVE",
"40 242 LINE",
"123 237 LINE"
);
},
{
closed = 1;
nodes = (
"263 441 LINE",
"260 441 OFFCURVE",
"257 441 OFFCURVE",
"254 441 CURVE SMOOTH",
"167 441 OFFCURVE",
"101 360 OFFCURVE",
"101 222 CURVE",
"101 192 OFFCURVE",
"133 157 OFFCURVE",
"133 215 CURVE SMOOTH",
"133 282 OFFCURVE",
"175 351 OFFCURVE",
"255 351 CURVE SMOOTH",
"257 351 OFFCURVE",
"259 351 OFFCURVE",
"261 351 CURVE"
);
},
{
closed = 1;
nodes = (
"259 351 OFFCURVE",
"261 351 OFFCURVE",
"263 351 CURVE SMOOTH",
"333 351 OFFCURVE",
"365 300 OFFCURVE",
"365 233 CURVE SMOOTH",
"365 232 OFFCURVE",
"458 231 OFFCURVE",
"458 232 CURVE SMOOTH",
"456 348 OFFCURVE",
"394 441 OFFCURVE",
"264 441 CURVE SMOOTH",
"261 441 OFFCURVE",
"258 441 OFFCURVE",
"255 441 CURVE",
"257 351 LINE"
);
}
);
width = 498;
}
);
unicode = 0036;
},
{
glyphname = eight;
lastChange = "2017-01-31 11:13:55 +0000";
layers = (
{
layerId = "7EBE3D46-E53E-419E-A3EC-596DA2EA1E0D";
name = Regular;
paths = (
{
closed = 1;
nodes = (
"60 468 OFFCURVE",
"90 393 OFFCURVE",
"150 370 CURVE",
"89 345 OFFCURVE",
"50 282 OFFCURVE",
"50 189 CURVE SMOOTH",
"50 73 OFFCURVE",
"120 -12 OFFCURVE",
"259 -12 CURVE SMOOTH",
"390 -12 OFFCURVE",
"470 81 OFFCURVE",
"470 189 CURVE SMOOTH",
"470 279 OFFCURVE",
"418 343 OFFCURVE",
"357 368 CURVE",
"418 389 OFFCURVE",
"460 465 OFFCURVE",
"460 515 CURVE SMOOTH",
"460 645 OFFCURVE",
"376 709 OFFCURVE",
"259 709 CURVE SMOOTH",
"132 709 OFFCURVE",
"60 645 OFFCURVE",
"60 515 CURVE SMOOTH"
);
},
{
closed = 1;
nodes = (
"146 297 OFFCURVE",
"203 332 OFFCURVE",
"260 332 CURVE SMOOTH",
"317 332 OFFCURVE",
"372 296 OFFCURVE",
"372 207 CURVE SMOOTH",
"372 199 LINE SMOOTH",
"372 137 OFFCURVE",
"340 78 OFFCURVE",
"260 78 CURVE SMOOTH",
"172 78 OFFCURVE",
"146 136 OFFCURVE",
"146 199 CURVE SMOOTH"
);
},
{
closed = 1;
nodes = (
"156 579 OFFCURVE",
"193 618 OFFCURVE",
"260 618 CURVE SMOOTH",
"327 618 OFFCURVE",
"362 577 OFFCURVE",
"362 522 CURVE SMOOTH",
"362 515 LINE SMOOTH",
"362 463 OFFCURVE",
"319 404 OFFCURVE",
"260 404 CURVE SMOOTH",
"259 404 LINE",
"198 404 OFFCURVE",
"156 461 OFFCURVE",
"156 515 CURVE SMOOTH"
);
}
);
width = 520;
}
);
unicode = 0038;
},
{
glyphname = asterisk;
lastChange = "2016-11-10 14:51:17 +0000";
layers = (
{
layerId = "7EBE3D46-E53E-419E-A3EC-596DA2EA1E0D";
name = Regular;
paths = (
{
closed = 1;
nodes = (
"260 532 LINE",
"349 582 LINE",
"320 633 LINE",
"235 581 LINE",
"235 683 LINE",
"178 683 LINE",
"178 579 LINE",
"94 633 LINE",
"70 583 LINE",
"158 533 LINE",
"70 483 LINE",
"97 434 LINE",
"183 485 LINE",
"183 383 LINE",
"240 383 LINE",
"240 485 LINE",
"325 434 LINE",
"348 484 LINE"
);
}
);
width = 419;
}
);
unicode = 002A;
},
{
glyphname = bullet;
lastChange = "2016-11-10 14:51:17 +0000";
layers = (
{
layerId = "7EBE3D46-E53E-419E-A3EC-596DA2EA1E0D";
name = Regular;
paths = (
{
closed = 1;
nodes = (
"300 190 OFFCURVE",
"365 251 OFFCURVE",
"365 326 CURVE SMOOTH",
"365 403 OFFCURVE",
"300 464 OFFCURVE",
"218 464 CURVE SMOOTH",
"137 464 OFFCURVE",
"70 403 OFFCURVE",
"70 326 CURVE SMOOTH",
"70 251 OFFCURVE",
"137 190 OFFCURVE",
"218 190 CURVE SMOOTH"
);
}
);
width = 435;
}
);
unicode = 2022;
},
{
glyphname = numbersign;
lastChange = "2016-11-10 14:51:17 +0000";
layers = (
{
layerId = "7EBE3D46-E53E-419E-A3EC-596DA2EA1E0D";
name = Regular;
paths = (
{
closed = 1;
nodes = (
"605 287 LINE",
"502 287 LINE",
"519 454 LINE",
"627 454 LINE",
"634 545 LINE",
"529 545 LINE",
"544 700 LINE",
"454 700 LINE",
"440 545 LINE",
"312 545 LINE",
"327 700 LINE",
"238 700 LINE",
"224 545 LINE",
"104 545 LINE",
"97 454 LINE",
"213 454 LINE",
"197 287 LINE",
"76 287 LINE",
"70 197 LINE",
"188 197 LINE",
"168 0 LINE",
"257 0 LINE",
"277 197 LINE",
"404 197 LINE",
"384 0 LINE",
"473 0 LINE",
"493 197 LINE",
"600 197 LINE"
);
},
{
closed = 1;
nodes = (
"286 287 LINE",
"303 454 LINE",
"430 454 LINE",
"413 287 LINE"
);
}
);
width = 704;
}
);
unicode = 0023;
},
{
glyphname = question;
lastChange = "2016-11-30 08:58:02 +0000";
layers = (
{
components = (
{
name = _dot;
transform = "{1, 0, 0, 1, 104, -609}";
}
);
layerId = "7EBE3D46-E53E-419E-A3EC-596DA2EA1E0D";
name = Regular;
paths = (
{
closed = 1;
nodes = (
"188 223 LINE",
"188 223 OFFCURVE",
"237 233 OFFCURVE",
"293 220 CURVE",
"430 408 OFFCURVE",
"453 449 OFFCURVE",
"453 538 CURVE SMOOTH",
"453 644 OFFCURVE",
"384 716 OFFCURVE",
"239 716 CURVE SMOOTH",
"193 716 OFFCURVE",
"127 707 OFFCURVE",
"75 671 CURVE",
"93 581 LINE",
"134 602 OFFCURVE",
"182 622 OFFCURVE",
"238 622 CURVE SMOOTH",
"328 622 OFFCURVE",
"351 578 OFFCURVE",
"351 530 CURVE SMOOTH",
"351 465 OFFCURVE",
"328 423 OFFCURVE",
"230 282 CURVE"
);
}
);
width = 518;
}
);
unicode = 003F;
},
{
glyphname = braceleft;
lastChange = "2016-11-10 14:51:17 +0000";
layers = (
{
layerId = "7EBE3D46-E53E-419E-A3EC-596DA2EA1E0D";
name = Regular;
paths = (
{
closed = 1;
nodes = (
"439 -105 LINE",
"410 -105 LINE SMOOTH",
"336 -105 OFFCURVE",
"302 -68 OFFCURVE",
"309 8 CURVE",
"309 153 LINE SMOOTH",
"309 235 OFFCURVE",
"274 279 OFFCURVE",
"205 285 CURVE",
"274 296 OFFCURVE",
"308 340 OFFCURVE",
"308 420 CURVE SMOOTH",
"308 511 LINE",
"301 585 OFFCURVE",
"335 621 OFFCURVE",
"410 621 CURVE SMOOTH",
"439 621 LINE",
"439 713 LINE",
"393 713 LINE SMOOTH",
"257 713 OFFCURVE",
"207 643 OFFCURVE",
"207 533 CURVE SMOOTH",
"207 429 LINE SMOOTH",
"207 361 OFFCURVE",
"187 331 OFFCURVE",
"91 331 CURVE SMOOTH",
"70 331 LINE",
"70 241 LINE",
"91 241 LINE SMOOTH",
"181 241 OFFCURVE",
"207 204 OFFCURVE",
"207 141 CURVE SMOOTH",
"207 -17 LINE SMOOTH",
"207 -136 OFFCURVE",
"269 -195 OFFCURVE",
"393 -195 CURVE SMOOTH",
"439 -195 LINE"
);
}
);
width = 509;
}
);
unicode = 007B;
},
{
glyphname = braceright;
lastChange = "2016-11-10 14:51:17 +0000";
layers = (
{
layerId = "7EBE3D46-E53E-419E-A3EC-596DA2EA1E0D";
name = Regular;
paths = (
{
closed = 1;
nodes = (
"116 -194 LINE SMOOTH",
"240 -194 OFFCURVE",
"302 -135 OFFCURVE",
"302 -16 CURVE SMOOTH",
"302 142 LINE SMOOTH",
"302 205 OFFCURVE",
"328 242 OFFCURVE",
"418 242 CURVE SMOOTH",
"439 242 LINE",
"439 332 LINE",
"418 332 LINE SMOOTH",
"322 332 OFFCURVE",
"302 362 OFFCURVE",
"302 430 CURVE SMOOTH",
"302 534 LINE SMOOTH",
"302 644 OFFCURVE",
"252 714 OFFCURVE",
"116 714 CURVE SMOOTH",
"70 714 LINE",
"70 622 LINE",
"99 622 LINE SMOOTH",
"174 622 OFFCURVE",
"208 586 OFFCURVE",
"201 512 CURVE",
"201 421 LINE SMOOTH",
"201 341 OFFCURVE",
"235 297 OFFCURVE",
"304 286 CURVE",
"235 280 OFFCURVE",
"200 236 OFFCURVE",
"200 154 CURVE SMOOTH",
"200 9 LINE",
"207 -67 OFFCURVE",
"173 -104 OFFCURVE",
"99 -104 CURVE SMOOTH",
"70 -104 LINE",
"70 -194 LINE"
);
}
);
width = 509;
}
);
unicode = 007D;
},
{
glyphname = currency;
lastChange = "2016-11-10 14:51:17 +0000";
layers = (
{
layerId = "7EBE3D46-E53E-419E-A3EC-596DA2EA1E0D";
name = Regular;
paths = (
{
closed = 1;
nodes = (
"142 578 LINE",
"70 507 LINE",
"146 429 LINE",
"144 424 LINE",
"137 407 OFFCURVE",
"133 389 OFFCURVE",
"133 369 CURVE SMOOTH",
"133 350 OFFCURVE",
"137 332 OFFCURVE",
"144 314 CURVE",
"145 311 OFFCURVE",
"145 309 OFFCURVE",
"146 308 CURVE",
"72 233 LINE",
"144 162 LINE",
"222 239 LINE",
"240 232 OFFCURVE",
"259 229 OFFCURVE",
"279 229 CURVE SMOOTH",
"300 229 OFFCURVE",
"319 232 OFFCURVE",
"337 239 CURVE",
"419 157 LINE",
"491 229 LINE",
"411 308 LINE",
"412 310 OFFCURVE",
"413 312 OFFCURVE",
"415 314 CURVE",
"423 332 OFFCURVE",
"427 350 OFFCURVE",
"427 369 CURVE SMOOTH",
"427 389 OFFCURVE",
"423 407 OFFCURVE",
"415 424 CURVE",
"413 425 OFFCURVE",
"413 427 OFFCURVE",
"412 429 CURVE",
"495 513 LINE",
"423 584 LINE",
"337 498 LINE",
"337 499 LINE",
"319 507 OFFCURVE",
"300 510 OFFCURVE",
"279 510 CURVE SMOOTH",
"259 510 OFFCURVE",
"240 507 OFFCURVE",
"222 499 CURVE",
"221 498 LINE"
);
},
{
closed = 1;
nodes = (
"326 438 OFFCURVE",
"363 387 OFFCURVE",
"342 342 CURVE",
"332 318 OFFCURVE",
"308 301 OFFCURVE",
"279 301 CURVE SMOOTH",
"260 301 OFFCURVE",
"243 306 OFFCURVE",
"230 320 CURVE SMOOTH",
"217 333 OFFCURVE",
"211 350 OFFCURVE",
"211 369 CURVE SMOOTH",
"211 378 OFFCURVE",
"213 387 OFFCURVE",
"217 395 CURVE SMOOTH",
"229 422 OFFCURVE",
"251 438 OFFCURVE",
"279 438 CURVE SMOOTH"
);
}
);
width = 565;
}
);
unicode = 00A4;
},
{
glyphname = infinity;
lastChange = "2016-11-10 14:51:17 +0000";
layers = (
{
layerId = "7EBE3D46-E53E-419E-A3EC-596DA2EA1E0D";
name = Regular;
paths = (
{
closed = 1;
nodes = (
"341 156 OFFCURVE",
"411 193 OFFCURVE",
"434 243 CURVE",
"458 193 OFFCURVE",
"486 153 OFFCURVE",
"588 152 CURVE SMOOTH",
"724 151 OFFCURVE",
"800 240 OFFCURVE",
"801 359 CURVE SMOOTH",
"802 479 OFFCURVE",
"719 572 OFFCURVE",
"591 572 CURVE SMOOTH",
"522 572 OFFCURVE",
"458 531 OFFCURVE",
"433 490 CURVE",
"412 531 OFFCURVE",
"346 572 OFFCURVE",
"275 572 CURVE SMOOTH",
"145 572 OFFCURVE",
"71 481 OFFCURVE",
"70 364 CURVE SMOOTH",
"69 237 OFFCURVE",
"143 156 OFFCURVE",
"273 156 CURVE SMOOTH"
);
},
{
closed = 1;
nodes = (
"512 249 OFFCURVE",
"467 296 OFFCURVE",
"468 363 CURVE SMOOTH",
"468 430 OFFCURVE",
"515 474 OFFCURVE",
"583 474 CURVE SMOOTH",
"591 474 LINE SMOOTH",
"663 473 OFFCURVE",
"711 430 OFFCURVE",
"711 361 CURVE SMOOTH",
"710 293 OFFCURVE",
"662 247 OFFCURVE",
"589 248 CURVE SMOOTH"
);
},
{
closed = 1;
nodes = (
"196 250 OFFCURVE",
"160 298 OFFCURVE",
"161 365 CURVE SMOOTH",
"161 432 OFFCURVE",
"199 477 OFFCURVE",
"268 476 CURVE SMOOTH",
"275 476 LINE SMOOTH",
"348 476 OFFCURVE",
"396 432 OFFCURVE",
"396 363 CURVE SMOOTH",
"396 362 LINE",
"396 356 LINE SMOOTH",
"395 293 OFFCURVE",
"346 250 OFFCURVE",
"273 250 CURVE SMOOTH"
);
}
);
width = 871;
}
);
unicode = 221E;
},
{
glyphname = percent;
lastChange = "2016-12-01 06:49:56 +0000";
layers = (
{
components = (
{
name = _percent;
transform = "{1, 0, 0, 1, 390, -251}";
},
{
name = _percent;
transform = "{1, 0, 0, 1, 69, 192}";
}
);
layerId = "7EBE3D46-E53E-419E-A3EC-596DA2EA1E0D";
name = Regular;
paths = (
{
closed = 1;
nodes = (
"545 700 LINE SMOOTH",
"126 24 LINE",
"126 1 LINE",
"210 1 LINE",
"631 676 LINE SMOOTH",
"631 700 LINE"
);
}
);
width = 696;
}
);
unicode = 0025;
},
{
glyphname = radical;
lastChange = "2016-11-10 14:51:17 +0000";
layers = (
{
components = (
{
name = _EF_horizontal;
transform = "{1, 0, 0, 1, 324, 308}";
},
{
name = _backslash;
transform = "{-1, 0, 0, 1, 595, 1}";
}
);
layerId = "7EBE3D46-E53E-419E-A3EC-596DA2EA1E0D";
name = Regular;
paths = (
{
closed = 1;
nodes = (
"70 395 LINE SMOOTH",
"229 -86 LINE",
"277 -86 LINE",
"304 3 LINE",
"162 429 LINE SMOOTH",
"70 429 LINE"
);
}
);
width = 730;
}
);
unicode = 221A;
},
{
glyphname = summation;
lastChange = "2016-11-10 14:51:17 +0000";
layers = (
{
components = (
{
name = _EF_horizontal;
transform = "{1, 0, 0, 1, 149, 313}";
},
{
name = _EF_horizontal;
transform = "{1, 0, 0, 1, -1, 313}";
},
{
name = _X;
transform = "{-1, 0, 0, 1, 625, 8}";
},
{
name = _EF_horizontal;
transform = "{1, 0, -0, -1, 149, 392}";
},
{
name = _EF_horizontal;
transform = "{1, 0, -0, -1, -1, 392}";
},
{
name = _X;
transform = "{-1, 0, -0, -1, 625, 697}";
}
);
layerId = "7EBE3D46-E53E-419E-A3EC-596DA2EA1E0D";
name = Regular;
paths = (
{
closed = 1;
nodes = (
"378 352 LINE",
"332 281 LINE",
"333 424 LINE"
);
}
);
width = 555;
}
);
unicode = 2211;
},
{
glyphname = at;
lastChange = "2016-11-14 14:32:38 +0000";
layers = (
{
layerId = "7EBE3D46-E53E-419E-A3EC-596DA2EA1E0D";
name = Regular;
paths = (
{
closed = 1;
nodes = (
"586 93 LINE",
"679 93 LINE",
"722 501 LINE",
"629 501 LINE"
);
},
{
closed = 1;
nodes = (
"626 463 LINE",
"598 502 OFFCURVE",
"550 514 OFFCURVE",
"504 514 CURVE SMOOTH",
"350 514 OFFCURVE",
"278 395 OFFCURVE",
"266 281 CURVE SMOOTH",
"259 211 LINE",
"247 85 OFFCURVE",
"315 -8 OFFCURVE",
"429 -8 CURVE SMOOTH",
"514 -8 OFFCURVE",
"563 36 OFFCURVE",
"587 87 CURVE"
);
},
{
closed = 1;
nodes = (
"357 271 LINE SMOOTH",
"365 352 OFFCURVE",
"402 429 OFFCURVE",
"495 429 CURVE SMOOTH",
"583 429 OFFCURVE",
"619 391 OFFCURVE",
"619 391 CURVE",
"607 281 LINE SMOOTH",
"599 210 OFFCURVE",
"577 76 OFFCURVE",
"438 76 CURVE SMOOTH",
"371 76 OFFCURVE",
"343 143 OFFCURVE",
"352 220 CURVE SMOOTH"
);
},
{
closed = 1;
nodes = (
"586 97 LINE",
"586 -78 OFFCURVE",
"773 -70 OFFCURVE",
"836 17 CURVE SMOOTH",
"882 81 OFFCURVE",
"913 158 OFFCURVE",
"913 268 CURVE SMOOTH",
"913 560 OFFCURVE",
"725 690 OFFCURVE",
"491 690 CURVE SMOOTH",
"259 690 OFFCURVE",
"90 553 OFFCURVE",
"90 268 CURVE SMOOTH",
"90 -17 OFFCURVE",
"259 -153 OFFCURVE",
"491 -153 CURVE SMOOTH",
"530 -153 OFFCURVE",
"569 -148 OFFCURVE",
"605 -138 CURVE",
"571 -53 LINE SMOOTH",
"543 -60 OFFCURVE",
"520 -64 OFFCURVE",
"490 -64 CURVE SMOOTH",
"301 -64 OFFCURVE",
"183 48 OFFCURVE",
"183 273 CURVE SMOOTH",
"183 500 OFFCURVE",
"301 604 OFFCURVE",
"490 604 CURVE SMOOTH",
"679 604 OFFCURVE",
"817 500 OFFCURVE",
"817 273 CURVE SMOOTH",
"817 214 OFFCURVE",
"806 154 OFFCURVE",
"782 106 CURVE SMOOTH",
"754 52 OFFCURVE",
"676 41 OFFCURVE",
"679 97 CURVE"
);
}
);
width = 983;
}
);
unicode = 0040;
},
{
glyphname = ampersand;
lastChange = "2016-11-10 14:51:17 +0000";
layers = (
{
layerId = "7EBE3D46-E53E-419E-A3EC-596DA2EA1E0D";
name = Regular;
paths = (
{
closed = 1;
nodes = (
"164 257 OFFCURVE",
"197 296 OFFCURVE",
"245 328 CURVE",
"408 120 LINE",
"374 87 OFFCURVE",
"337 71 OFFCURVE",
"292 71 CURVE SMOOTH",
"213 71 OFFCURVE",
"164 120 OFFCURVE",
"164 194 CURVE SMOOTH"
);
},
{
closed = 1;
nodes = (
"389 498 OFFCURVE",
"341 464 OFFCURVE",
"280 432 CURVE",
"266 450 LINE SMOOTH",
"235 489 OFFCURVE",
"222 517 OFFCURVE",
"222 556 CURVE SMOOTH",
"222 605 OFFCURVE",
"252 643 OFFCURVE",
"308 643 CURVE SMOOTH",
"357 644 OFFCURVE",
"389 613 OFFCURVE",
"389 561 CURVE SMOOTH"
);
},
{
closed = 1;
nodes = (
"609 21 LINE",
"524 124 LINE",
"557 184 OFFCURVE",
"581 257 OFFCURVE",
"581 312 CURVE",
"490 345 LINE",
"490 282 OFFCURVE",
"475 248 OFFCURVE",
"460 207 CURVE",
"326 374 LINE",
"403 419 OFFCURVE",
"481 464 OFFCURVE",
"481 570 CURVE SMOOTH",
"481 651 OFFCURVE",
"423 721 OFFCURVE",
"311 721 CURVE SMOOTH",
"194 721 OFFCURVE",
"129 647 OFFCURVE",
"129 547 CURVE SMOOTH",
"129 500 OFFCURVE",
"147 450 OFFCURVE",
"187 402 CURVE",
"198 386 LINE",
"131 343 OFFCURVE",
"70 291 OFFCURVE",
"70 183 CURVE SMOOTH",
"70 72 OFFCURVE",
"146 -7 OFFCURVE",
"279 -7 CURVE SMOOTH",
"350 -7 OFFCURVE",
"409 16 OFFCURVE",
"458 57 CURVE",
"504 0 LINE",
"609 0 LINE"
);
}
);
width = 679;
}
);
unicode = 0026;
},
{
glyphname = paragraph;
lastChange = "2016-11-10 14:51:17 +0000";
layers = (
{
layerId = "7EBE3D46-E53E-419E-A3EC-596DA2EA1E0D";
name = Regular;
paths = (
{
closed = 1;
nodes = (
"137 276 OFFCURVE",
"70 372 OFFCURVE",
"70 489 CURVE SMOOTH",
"70 606 OFFCURVE",
"154 699 OFFCURVE",
"343 699 CURVE SMOOTH",
"521 699 LINE",
"521 1 LINE",
"429 1 LINE",
"429 627 LINE",
"345 627 LINE",
"345 276 LINE"
);
}
);
width = 591;
}
);
unicode = 00B6;
},
{
glyphname = section;
lastChange = "2016-11-10 14:51:17 +0000";
layers = (
{
layerId = "7EBE3D46-E53E-419E-A3EC-596DA2EA1E0D";
name = Regular;
paths = (
{
closed = 1;
nodes = (
"505 93 OFFCURVE",
"538 153 OFFCURVE",
"538 212 CURVE SMOOTH",
"538 405 OFFCURVE",
"225 449 OFFCURVE",
"225 549 CURVE SMOOTH",
"225 571 OFFCURVE",
"232 581 OFFCURVE",
"253 595 CURVE SMOOTH",
"273 609 OFFCURVE",
"304 619 OFFCURVE",
"351 619 CURVE SMOOTH",
"393 619 OFFCURVE",
"431 614 OFFCURVE",
"478 602 CURVE",
"478 695 LINE",
"438 703 OFFCURVE",
"395 708 OFFCURVE",
"353 708 CURVE SMOOTH",
"175 708 OFFCURVE",
"126 610 OFFCURVE",
"126 540 CURVE SMOOTH",
"126 500 OFFCURVE",
"146 470 OFFCURVE",
"167 453 CURVE",
"103 416 OFFCURVE",
"70 349 OFFCURVE",
"70 295 CURVE SMOOTH",
"70 103 OFFCURVE",
"386 56 OFFCURVE",
"386 -38 CURVE SMOOTH",
"386 -93 OFFCURVE",
"341 -114 OFFCURVE",
"249 -114 CURVE SMOOTH",
"188 -114 OFFCURVE",
"143 -105 OFFCURVE",
"88 -88 CURVE",
"88 -187 LINE",
"139 -199 OFFCURVE",
"177 -206 OFFCURVE",
"253 -206 CURVE SMOOTH",
"358 -206 OFFCURVE",
"484 -154 OFFCURVE",
"484 -32 CURVE SMOOTH",
"484 3 OFFCURVE",
"465 35 OFFCURVE",
"442 54 CURVE"
);
},
{
closed = 1;
nodes = (
"281 164 OFFCURVE",
"164 214 OFFCURVE",
"164 303 CURVE SMOOTH",
"164 333 OFFCURVE",
"188 381 OFFCURVE",
"231 402 CURVE",
"323 341 OFFCURVE",
"445 294 OFFCURVE",
"445 204 CURVE SMOOTH",
"445 173 OFFCURVE",
"421 126 OFFCURVE",
"376 103 CURVE"
);
}
);
width = 608;
}
);
unicode = 00A7;
},
{
glyphname = degree;
lastChange = "2016-11-10 14:51:17 +0000";
layers = (
{
layerId = "7EBE3D46-E53E-419E-A3EC-596DA2EA1E0D";
name = Regular;
paths = (
{
closed = 1;
nodes = (
"293 427 OFFCURVE",
"357 491 OFFCURVE",
"357 571 CURVE SMOOTH",
"357 650 OFFCURVE",
"293 714 OFFCURVE",
"214 714 CURVE SMOOTH",
"134 714 OFFCURVE",
"70 650 OFFCURVE",
"70 571 CURVE SMOOTH",
"70 491 OFFCURVE",
"134 427 OFFCURVE",
"214 427 CURVE SMOOTH"
);
},
{
closed = 1;
nodes = (
"171 493 OFFCURVE",
"137 528 OFFCURVE",
"137 572 CURVE SMOOTH",
"137 614 OFFCURVE",
"171 649 OFFCURVE",
"215 649 CURVE SMOOTH",
"258 649 OFFCURVE",
"293 614 OFFCURVE",
"293 572 CURVE SMOOTH",
"293 528 OFFCURVE",
"258 493 OFFCURVE",
"215 493 CURVE SMOOTH"
);
}
);
width = 427;
}
);
unicode = 00B0;
},
{
glyphname = cedilla;
lastChange = "2016-11-10 12:24:57 +0000";
layers = (
{
layerId = "7EBE3D46-E53E-419E-A3EC-596DA2EA1E0D";
name = Regular;
paths = (
{
closed = 1;
nodes = (
"232 -73 LINE",
"256 -73 OFFCURVE",
"304 -68 OFFCURVE",
"304 -110 CURVE",
"304 -169 OFFCURVE",
"229 -138 OFFCURVE",
"229 -138 CURVE SMOOTH",
"212 -213 LINE",
"305 -234 OFFCURVE",
"387 -222 OFFCURVE",
"387 -117 CURVE",
"387 -20 OFFCURVE",
"309 -32 OFFCURVE",
"309 -32 CURVE SMOOTH",
"319 15 LINE",
"245 6 LINE"
);
}
);
width = 600;
}
);
unicode = 00B8;
},
{
glyphname = ogonek;
lastChange = "2016-11-11 07:52:14 +0000";
layers = (
{
layerId = "7EBE3D46-E53E-419E-A3EC-596DA2EA1E0D";
name = Regular;
paths = (
{
closed = 1;
nodes = (
"373 -127 LINE",
"361 -128 OFFCURVE",
"346 -128 OFFCURVE",
"337 -128 CURVE SMOOTH",
"300 -128 OFFCURVE",
"287 -113 OFFCURVE",
"287 -90 CURVE SMOOTH",
"287 -60 OFFCURVE",
"303 -36 OFFCURVE",
"335 -25 CURVE",
"335 0 LINE",
"244 0 LINE",
"182 -40 OFFCURVE",
"181 -82 OFFCURVE",
"181 -115 CURVE SMOOTH",
"181 -166 OFFCURVE",
"230 -220 OFFCURVE",
"305 -220 CURVE SMOOTH",
"322 -220 OFFCURVE",
"346 -219 OFFCURVE",
"363 -216 CURVE"
);
}
);
width = 600;
}
);
unicode = 02DB;
},
{
glyphname = ring;
lastChange = "2016-11-10 12:08:16 +0000";
layers = (
{
layerId = "7EBE3D46-E53E-419E-A3EC-596DA2EA1E0D";
name = Regular;
paths = (
{
closed = 1;
nodes = (
"376.812 530 OFFCURVE",
"433 586.188 OFFCURVE",
"433 655.5 CURVE SMOOTH",
"433 724.812 OFFCURVE",
"376.812 781 OFFCURVE",
"307.5 781 CURVE SMOOTH",
"238.188 781 OFFCURVE",
"182 724.812 OFFCURVE",
"182 655.5 CURVE SMOOTH",
"182 586.188 OFFCURVE",
"238.188 530 OFFCURVE",
"307.5 530 CURVE SMOOTH"
);
},
{
closed = 1;
nodes = (
"278 598 OFFCURVE",
"253 623 OFFCURVE",
"253 653 CURVE SMOOTH",
"253 684 OFFCURVE",
"278 708 OFFCURVE",
"308 708 CURVE SMOOTH",
"338 708 OFFCURVE",
"363 684 OFFCURVE",
"363 653 CURVE SMOOTH",
"363 623 OFFCURVE",
"338 598 OFFCURVE",
"308 598 CURVE SMOOTH"
);
}
);
width = 600;
}
);
unicode = 02DA;
},
{
glyphname = _one.001;
lastChange = "2016-11-09 19:22:23 +0000";
layers = (
{
components = (
{
name = _I_small;
transform = "{1, 0, 0, 1, 117, 3}";
},
{
name = _I_small;
transform = "{1, 0, 0, 1, 117, 168}";
},
{
name = _I_small;
transform = "{1, 0, 0, 1, 117, 331}";
},
{
name = _I_small;
transform = "{1, 0, 0, 1, 117, 477}";
},
{
name = "_dash-small";
transform = "{1, 0, 0, 1, -1, -219}";
},
{
name = "_dash-small";
transform = "{1, 0, 0, 1, -84, -219}";
}
);
layerId = "7EBE3D46-E53E-419E-A3EC-596DA2EA1E0D";
name = Regular;
paths = (
{
closed = 1;
nodes = (
"48 579 LINE",
"250 622 LINE",
"250 700 LINE",
"210 700 LINE",
"48 660 LINE"
);
}
);
width = 600;
}
);
},
{
glyphname = newGlyph;
lastChange = "2016-12-01 08:10:25 +0000";
layers = (
{
layerId = "7EBE3D46-E53E-419E-A3EC-596DA2EA1E0D";
name = Regular;
paths = (
{
closed = 1;
nodes = (
"451.244 183 OFFCURVE",
"494 243.217 OFFCURVE",
"494 317.5 CURVE SMOOTH",
"494 391.783 OFFCURVE",
"451.244 452 OFFCURVE",
"398.5 452 CURVE SMOOTH",
"345.756 452 OFFCURVE",
"303 391.783 OFFCURVE",
"303 317.5 CURVE SMOOTH",
"303 243.217 OFFCURVE",
"345.756 183 OFFCURVE",
"398.5 183 CURVE SMOOTH"
);
}
);
width = 600;
}
);
},
{
glyphname = _slash;
lastChange = "2017-03-03 07:51:29 +0000";
layers = (
{
layerId = "7EBE3D46-E53E-419E-A3EC-596DA2EA1E0D";
name = Regular;
paths = (
{
closed = 1;
nodes = (
"312 720 LINE SMOOTH",
"34 1 LINE",
"133 1 LINE",
"318 497 LINE SMOOTH",
"334 497 LINE",
"324 720 LINE"
);
}
);
width = 600;
}
);
},
{
glyphname = _curve_B;
lastChange = "2017-01-28 10:06:58 +0000";
layers = (
{
layerId = "7EBE3D46-E53E-419E-A3EC-596DA2EA1E0D";
name = Regular;
paths = (
{
closed = 1;
nodes = (
"143 707 OFFCURVE",
"72 699 OFFCURVE",
"32 693 CURVE",
"32 602 LINE",
"72 617 OFFCURVE",
"158 626 OFFCURVE",
"214 624 CURVE SMOOTH",
"301 621 OFFCURVE",
"328 582 OFFCURVE",
"328 507 CURVE SMOOTH",
"328 433 OFFCURVE",
"296 383 OFFCURVE",
"181 383 CURVE SMOOTH",
"82 383 LINE",
"71 344 LINE",
"277 344 LINE",
"377 366 OFFCURVE",
"432 423 OFFCURVE",
"432 508 CURVE SMOOTH",
"432 632 OFFCURVE",
"351 704 OFFCURVE",
"213 706 CURVE SMOOTH"
);
}
);
width = 469;
}
);
},
{
glyphname = _I_dbh;
lastChange = "2017-03-01 10:50:09 +0000";
layers = (
{
components = (
{
name = _I_small;
transform = "{1, 0, 0, 1, 0, 582}";
},
{
name = _I_small;
transform = "{1, 0, 0, 1, 0, 98}";
},
{
name = _I_small;
transform = "{1, 0, 0, 1, 0, 426}";
},
{
name = _I_small;
transform = "{1, 0, 0, 1, 0, 572}";
},
{
name = _I_small;
transform = "{1, 0, 0, 1, 0, 533}";
},
{
name = _I_small;
transform = "{1, 0, 0, 1, 0, -1}";
},
{
name = _I_small;
transform = "{1, 0, 0, 1, 0, 165}";
},
{
name = _I_small;
transform = "{1, 0, 0, 1, 0, 328}";
},
{
name = _I_small;
transform = "{1, 0, 0, 1, 0, 474}";
}
);
layerId = "7EBE3D46-E53E-419E-A3EC-596DA2EA1E0D";
name = Regular;
paths = (
{
closed = 1;
nodes = (
"40 264 LINE",
"133 264 LINE",
"133 431 LINE",
"40 431 LINE"
);
}
);
width = 509;
}
);
},
{
glyphname = _curve_b;
lastChange = "2017-03-01 10:53:04 +0000";
layers = (
{
layerId = "7EBE3D46-E53E-419E-A3EC-596DA2EA1E0D";
name = Regular;
paths = (
{
closed = 1;
nodes = (
"141 511 OFFCURVE",
"108 426 OFFCURVE",
"99 376 CURVE",
"129 277 LINE",
"130 368 OFFCURVE",
"164 423 OFFCURVE",
"242 423 CURVE SMOOTH",
"322 423 OFFCURVE",
"357 369 OFFCURVE",
"357 276 CURVE SMOOTH",
"357 236 LINE SMOOTH",
"357 135 OFFCURVE",
"309 86 OFFCURVE",
"246 85 CURVE SMOOTH",
"184 84 OFFCURVE",
"165 91 OFFCURVE",
"128 109 CURVE",
"125 48 LINE",
"154 18 OFFCURVE",
"189 -11 OFFCURVE",
"251 -11 CURVE SMOOTH",
"378 -11 OFFCURVE",
"449 98 OFFCURVE",
"449 222 CURVE SMOOTH",
"449 286 LINE",
"447 416 OFFCURVE",
"377 511 OFFCURVE",
"249 511 CURVE SMOOTH"
);
}
);
width = 493;
}
);
},
{
glyphname = _C_curve;
lastChange = "2016-12-27 14:00:47 +0000";
layers = (
{
components = (
{
name = _c;
transform = "{1, 0, 0, 1, -3, 0}";
}
);
layerId = "7EBE3D46-E53E-419E-A3EC-596DA2EA1E0D";
name = Regular;
paths = (
{
closed = 1;
nodes = (
"277 665 LINE",
"274 665 OFFCURVE",
"271 665 OFFCURVE",
"268 665 CURVE SMOOTH",
"141 665 OFFCURVE",
"31 588 OFFCURVE",
"31 371 CURVE SMOOTH",
"31 282 LINE SMOOTH",
"31 153 OFFCURVE",
"125 201 OFFCURVE",
"125 282 CURVE SMOOTH",
"125 362 LINE SMOOTH",
"125 511 OFFCURVE",
"186 575 OFFCURVE",
"266 575 CURVE SMOOTH",
"269 575 OFFCURVE",
"272 575 OFFCURVE",
"275 575 CURVE"
);
}
);
width = 506;
}
);
},
{
glyphname = _I_small;
lastChange = "2016-12-18 18:06:12 +0000";
layers = (
{
layerId = "7EBE3D46-E53E-419E-A3EC-596DA2EA1E0D";
name = Regular;
paths = (
{
closed = 1;
nodes = (
"40 1 LINE",
"133 1 LINE",
"133 168 LINE",
"40 168 LINE"
);
}
);
width = 469;
}
);
},
{
glyphname = _curve_generic;
lastChange = "2016-12-05 08:59:33 +0000";
layers = (
{
layerId = "7EBE3D46-E53E-419E-A3EC-596DA2EA1E0D";
name = Regular;
paths = (
{
closed = 1;
nodes = (
"357 431 OFFCURVE",
"450 413 OFFCURVE",
"450 499 CURVE SMOOTH",
"450 611 OFFCURVE",
"390 703 OFFCURVE",
"252 702 CURVE SMOOTH",
"103 701 LINE",
"118 620 LINE",
"233 620 LINE SMOOTH",
"321 620 OFFCURVE",
"357 571 OFFCURVE",
"357 498 CURVE SMOOTH"
);
}
);
width = 600;
}
);
},
{
glyphname = _EF_horizontal;
lastChange = "2017-01-26 23:10:13 +0000";
layers = (
{
layerId = "7EBE3D46-E53E-419E-A3EC-596DA2EA1E0D";
name = Regular;
paths = (
{
closed = 1;
nodes = (
"134 312 LINE",
"336 312 LINE",
"336 393 LINE",
"134 393 LINE"
);
}
);
width = 600;
}
);
},
{
glyphname = "_dash-small";
lastChange = "2016-11-08 13:09:20 +0000";
layers = (
{
layerId = "7EBE3D46-E53E-419E-A3EC-596DA2EA1E0D";
name = Regular;
paths = (
{
closed = 1;
nodes = (
"170 222 LINE",
"332 222 LINE",
"332 300 LINE",
"170 300 LINE"
);
}
);
width = 600;
}
);
},
{
glyphname = _dot;
lastChange = "2017-01-08 11:08:53 +0000";
layers = (
{
layerId = "7EBE3D46-E53E-419E-A3EC-596DA2EA1E0D";
name = Regular;
paths = (
{
closed = 1;
nodes = (
"172 599 OFFCURVE",
"207 630 OFFCURVE",
"207 669 CURVE SMOOTH",
"207 709 OFFCURVE",
"172 741 OFFCURVE",
"131 741 CURVE SMOOTH",
"89 741 OFFCURVE",
"54 709 OFFCURVE",
"54 669 CURVE SMOOTH",
"54 630 OFFCURVE",
"89 599 OFFCURVE",
"131 599 CURVE SMOOTH"
);
}
);
width = 260;
}
);
},
{
glyphname = _hmn;
lastChange = "2017-03-01 10:53:15 +0000";
layers = (
{
layerId = "7EBE3D46-E53E-419E-A3EC-596DA2EA1E0D";
name = Regular;
paths = (
{
closed = 1;
nodes = (
"178 511 OFFCURVE",
"127 433 OFFCURVE",
"108 333 CURVE",
"138 293 LINE",
"140 394 OFFCURVE",
"203 422 OFFCURVE",
"251 422 CURVE SMOOTH",
"305 422 OFFCURVE",
"361 389 OFFCURVE",
"361 283 CURVE SMOOTH",
"361 1 LINE",
"454 1 LINE",
"454 293 LINE",
"452 429 OFFCURVE",
"393 511 OFFCURVE",
"271 511 CURVE SMOOTH"
);
}
);
width = 600;
}
);
},
{
glyphname = _w_slash;
lastChange = "2017-03-03 07:46:37 +0000";
layers = (
{
layerId = "7EBE3D46-E53E-419E-A3EC-596DA2EA1E0D";
name = Regular;
paths = (
{
closed = 1;
nodes = (
"278 237 LINE SMOOTH",
"252 237 LINE",
"129 699 LINE",
"31 699 LINE",
"240 -20 LINE SMOOTH",
"255 -20 LINE"
);
}
);
width = 600;
}
);
},
{
glyphname = _w_slash_2;
lastChange = "2017-03-03 07:46:28 +0000";
layers = (
{
layerId = "7EBE3D46-E53E-419E-A3EC-596DA2EA1E0D";
name = Regular;
paths = (
{
closed = 1;
nodes = (
"235 -19 LINE SMOOTH",
"376 434 LINE",
"400 433 LINE",
"387 720 LINE SMOOTH",
"366 720 LINE",
"206 165 LINE SMOOTH",
"216 -19 LINE"
);
}
);
width = 600;
}
);
},
{
glyphname = _X;
lastChange = "2016-12-28 12:17:24 +0000";
layers = (
{
layerId = "7EBE3D46-E53E-419E-A3EC-596DA2EA1E0D";
name = Regular;
paths = (
{
closed = 1;
nodes = (
"315 289 LINE SMOOTH",
"580 698 LINE",
"467 698 LINE",
"283 401 LINE SMOOTH",
"283 289 LINE"
);
}
);
width = 600;
}
);
},
{
glyphname = _curve_lower;
lastChange = "2017-02-23 13:01:09 +0000";
layers = (
{
layerId = "7EBE3D46-E53E-419E-A3EC-596DA2EA1E0D";
name = Regular;
paths = (
{
closed = 1;
nodes = (
"358 155 LINE",
"325 120 OFFCURVE",
"302 101 OFFCURVE",
"267 101 CURVE SMOOTH",
"216 101 OFFCURVE",
"196 140 OFFCURVE",
"196 201 CURVE SMOOTH",
"196 348 LINE",
"103 348 LINE",
"103 199 LINE SMOOTH",
"103 83 OFFCURVE",
"147 11 OFFCURVE",
"252 11 CURVE SMOOTH",
"332 11 OFFCURVE",
"368 38 OFFCURVE",
"403 76 CURVE"
);
}
);
width = 476;
}
);
},
{
glyphname = _curve_lower_big;
lastChange = "2017-01-21 16:37:08 +0000";
layers = (
{
components = (
{
name = _c;
transform = "{1, 0, 0, -1, -609, 653}";
}
);
layerId = "7EBE3D46-E53E-419E-A3EC-596DA2EA1E0D";
name = Regular;
paths = (
{
closed = 1;
nodes = (
"-332 78 LINE",
"-412 78 OFFCURVE",
"-449 132 OFFCURVE",
"-449 221 CURVE SMOOTH",
"-449 241 LINE SMOOTH",
"-449 322 OFFCURVE",
"-543 310 OFFCURVE",
"-543 251 CURVE SMOOTH",
"-543 212 LINE SMOOTH",
"-543 75 OFFCURVE",
"-457 -12 OFFCURVE",
"-330 -12 CURVE"
);
}
);
width = 526;
}
);
},
{
glyphname = _o_curve;
lastChange = "2017-02-27 18:26:35 +0000";
layers = (
{
layerId = "7EBE3D46-E53E-419E-A3EC-596DA2EA1E0D";
name = Regular;
paths = (
{
closed = 1;
nodes = (
"257 511 LINE",
"254 511 OFFCURVE",
"241 511 OFFCURVE",
"238 511 CURVE SMOOTH",
"98 511 OFFCURVE",
"46 408 OFFCURVE",
"44 282 CURVE SMOOTH",
"44 281 OFFCURVE",
"44 263 OFFCURVE",
"44 246 CURVE",
"137 246 LINE",
"137 283 LINE",
"137 360 OFFCURVE",
"169 421 OFFCURVE",
"249 421 CURVE SMOOTH",
"251 421 OFFCURVE",
"253 421 OFFCURVE",
"255 421 CURVE"
);
}
);
width = 900;
}
);
},
{
glyphname = _M;
lastChange = "2017-03-03 08:18:57 +0000";
layers = (
{
layerId = "7EBE3D46-E53E-419E-A3EC-596DA2EA1E0D";
name = Regular;
paths = (
{
closed = 1;
nodes = (
"603 467 LINE",
"603 699 LINE",
"603 700 LINE",
"582 700 LINE",
"303 294 LINE",
"306 123 LINE",
"315 123 LINE",
"526 457 LINE"
);
}
);
width = 642;
}
);
},
{
glyphname = _O;
lastChange = "2016-11-30 07:12:13 +0000";
layers = (
{
layerId = "7EBE3D46-E53E-419E-A3EC-596DA2EA1E0D";
name = Regular;
paths = (
{
closed = 1;
nodes = (
"300 706 LINE",
"284 707 LINE",
"132 707 OFFCURVE",
"50 583 OFFCURVE",
"50 421 CURVE SMOOTH",
"50 420 OFFCURVE",
"50 353 OFFCURVE",
"50 336 CURVE",
"143 348 LINE",
"143 362 OFFCURVE",
"143 412 OFFCURVE",
"143 413 CURVE SMOOTH",
"143 536 OFFCURVE",
"187 614 OFFCURVE",
"285 614 CURVE",
"293 614 LINE"
);
}
);
width = 900;
}
);
},
{
glyphname = _x;
lastChange = "2016-12-28 12:32:40 +0000";
layers = (
{
layerId = "7EBE3D46-E53E-419E-A3EC-596DA2EA1E0D";
name = Regular;
paths = (
{
closed = 1;
nodes = (
"358 202 LINE SMOOTH",
"495 1 LINE",
"609 1 LINE",
"390 311 LINE SMOOTH",
"358 311 LINE"
);
}
);
width = 900;
}
);
},
{
glyphname = _w_small_slash;
lastChange = "2017-03-03 08:00:00 +0000";
layers = (
{
layerId = "7EBE3D46-E53E-419E-A3EC-596DA2EA1E0D";
name = Regular;
paths = (
{
closed = 1;
nodes = (
"243 198 LINE SMOOTH",
"224 198 LINE",
"128 499 LINE",
"23 499 LINE",
"215 -18 LINE SMOOTH",
"237 -18 LINE"
);
}
);
width = 900;
}
);
},
{
glyphname = _w_small_slash_2;
lastChange = "2017-03-03 08:00:36 +0000";
layers = (
{
layerId = "7EBE3D46-E53E-419E-A3EC-596DA2EA1E0D";
name = Regular;
paths = (
{
closed = 1;
nodes = (
"416 120 LINE SMOOTH",
"274 519 LINE",
"261 519 LINE",
"249 295 LINE",
"264 295 LINE",
"377 -18 LINE SMOOTH",
"399 -18 LINE"
);
}
);
width = 900;
}
);
},
{
glyphname = _y;
lastChange = "2017-03-03 07:51:18 +0000";
layers = (
{
layerId = "7EBE3D46-E53E-419E-A3EC-596DA2EA1E0D";
name = Regular;
paths = (
{
closed = 1;
nodes = (
"318 -20 LINE SMOOTH",
"543 500 LINE",
"438 500 LINE",
"312 187 LINE",
"283 187 LINE SMOOTH",
"306 -20 LINE"
);
}
);
width = 900;
}
);
},
{
glyphname = _D;
lastChange = "2017-03-03 08:31:43 +0000";
layers = (
{
layerId = "7EBE3D46-E53E-419E-A3EC-596DA2EA1E0D";
name = Regular;
paths = (
{
closed = 1;
nodes = (
"419 258 LINE",
"419 195 OFFCURVE",
"513 259 OFFCURVE",
"513 335 CURVE",
"513 389 LINE",
"513 602 OFFCURVE",
"431 708 OFFCURVE",
"253 711 CURVE SMOOTH",
"186 712 OFFCURVE",
"127 702 OFFCURVE",
"82 693 CURVE",
"82 603 LINE",
"127 616 OFFCURVE",
"191 617 OFFCURVE",
"240 617 CURVE SMOOTH",
"382 617 OFFCURVE",
"419 514 OFFCURVE",
"419 378 CURVE"
);
}
);
width = 533;
}
);
},
{
glyphname = _qtail;
lastChange = "2016-11-09 15:29:32 +0000";
layers = (
{
anchors = (
{
name = _tailq;
position = "{467, 92}";
}
);
layerId = "7EBE3D46-E53E-419E-A3EC-596DA2EA1E0D";
name = Regular;
paths = (
{
closed = 1;
nodes = (
"320 205 LINE SMOOTH",
"469 1 LINE",
"547 1 LINE",
"547 24 LINE",
"352 303 LINE SMOOTH",
"320 303 LINE"
);
}
);
width = 616;
}
);
},
{
glyphname = _m_curve;
lastChange = "2017-01-19 20:57:47 +0000";
layers = (
{
layerId = "7EBE3D46-E53E-419E-A3EC-596DA2EA1E0D";
name = Regular;
paths = (
{
closed = 1;
nodes = (
"143 511 OFFCURVE",
"102 433 OFFCURVE",
"83 333 CURVE",
"113 293 LINE",
"115 394 OFFCURVE",
"158 419 OFFCURVE",
"206 419 CURVE SMOOTH",
"260 419 OFFCURVE",
"296 389 OFFCURVE",
"296 283 CURVE SMOOTH",
"296 1 LINE",
"389 1 LINE",
"389 293 LINE",
"387 429 OFFCURVE",
"348 511 OFFCURVE",
"226 511 CURVE SMOOTH"
);
}
);
width = 741;
}
);
},
{
glyphname = _R_slash;
lastChange = "2017-01-31 11:09:38 +0000";
layers = (
{
layerId = "7EBE3D46-E53E-419E-A3EC-596DA2EA1E0D";
name = Regular;
paths = (
{
closed = 1;
nodes = (
"206 375 LINE SMOOTH",
"380 2 LINE",
"475 2 LINE",
"302 375 LINE SMOOTH"
);
}
);
width = 533;
}
);
},
{
glyphname = _fraction_slash;
lastChange = "2016-11-10 08:29:16 +0000";
layers = (
{
layerId = "7EBE3D46-E53E-419E-A3EC-596DA2EA1E0D";
name = Regular;
paths = (
{
closed = 1;
nodes = (
"411 700 LINE SMOOTH",
"182 14 LINE",
"182 1 LINE",
"242 1 LINE",
"463 686 LINE SMOOTH",
"463 700 LINE"
);
}
);
width = 710;
}
);
},
{
glyphname = _backslash;
lastChange = "2016-12-01 06:47:05 +0000";
layers = (
{
layerId = "7EBE3D46-E53E-419E-A3EC-596DA2EA1E0D";
name = Regular;
paths = (
{
closed = 1;
nodes = (
"70 676 LINE SMOOTH",
"291 1 LINE",
"375 1 LINE",
"375 24 LINE",
"156 700 LINE SMOOTH",
"70 700 LINE"
);
}
);
width = 600;
}
);
},
{
glyphname = _exclamation;
lastChange = "2016-11-10 09:34:10 +0000";
layers = (
{
layerId = "7EBE3D46-E53E-419E-A3EC-596DA2EA1E0D";
name = Regular;
paths = (
{
closed = 1;
nodes = (
"84 238 LINE",
"177 238 LINE",
"197 699 LINE",
"64 699 LINE"
);
}
);
width = 600;
}
);
},
{
glyphname = _two_question;
lastChange = "2016-11-30 08:57:11 +0000";
layers = (
{
layerId = "7EBE3D46-E53E-419E-A3EC-596DA2EA1E0D";
name = Regular;
paths = (
{
closed = 1;
nodes = (
"230 251 LINE",
"230 251 OFFCURVE",
"264 222 OFFCURVE",
"299 196 CURVE",
"436 384 OFFCURVE",
"474 449 OFFCURVE",
"474 538 CURVE SMOOTH",
"474 644 OFFCURVE",
"405 716 OFFCURVE",
"260 716 CURVE SMOOTH",
"214 716 OFFCURVE",
"148 707 OFFCURVE",
"96 671 CURVE",
"114 581 LINE",
"155 602 OFFCURVE",
"203 622 OFFCURVE",
"259 622 CURVE SMOOTH",
"349 622 OFFCURVE",
"372 578 OFFCURVE",
"372 530 CURVE SMOOTH",
"372 465 OFFCURVE",
"349 423 OFFCURVE",
"251 282 CURVE"
);
}
);
width = 565;
}
);
},
{
glyphname = _quote;
lastChange = "2016-12-03 16:27:10 +0000";
layers = (
{
layerId = "7EBE3D46-E53E-419E-A3EC-596DA2EA1E0D";
name = Regular;
paths = (
{
closed = 1;
nodes = (
"148 -3 OFFCURVE",
"124 -61 OFFCURVE",
"96 -117 CURVE",
"143 -127 LINE SMOOTH",
"144 -127 OFFCURVE",
"220 -35 OFFCURVE",
"220 70 CURVE",
"123 3 LINE"
);
}
);
width = 600;
}
);
},
{
glyphname = _bracket;
lastChange = "2016-11-10 09:51:25 +0000";
layers = (
{
layerId = "7EBE3D46-E53E-419E-A3EC-596DA2EA1E0D";
name = Regular;
paths = (
{
closed = 1;
nodes = (
"472 -139 LINE",
"349 -18 OFFCURVE",
"286 121 OFFCURVE",
"286 270 CURVE SMOOTH",
"286 419 OFFCURVE",
"348 556 OFFCURVE",
"472 679 CURVE",
"403 729 LINE",
"240 574 OFFCURVE",
"180 419 OFFCURVE",
"180 264 CURVE SMOOTH",
"180 98 OFFCURVE",
"254 -53 OFFCURVE",
"402 -190 CURVE"
);
}
);
width = 600;
}
);
},
{
glyphname = _square_bracket;
lastChange = "2016-12-01 06:45:24 +0000";
layers = (
{
layerId = "7EBE3D46-E53E-419E-A3EC-596DA2EA1E0D";
name = Regular;
paths = (
{
closed = 1;
nodes = (
"290 701 LINE",
"103 701 LINE",
"103 -201 LINE",
"290 -201 LINE",
"290 -117 LINE",
"200 -117 LINE",
"200 616 LINE",
"290 616 LINE"
);
}
);
width = 600;
}
);
},
{
glyphname = _percent;
lastChange = "2016-11-10 10:38:34 +0000";
layers = (
{
layerId = "7EBE3D46-E53E-419E-A3EC-596DA2EA1E0D";
name = Regular;
paths = (
{
closed = 1;
nodes = (
"75 535 OFFCURVE",
"11 497 OFFCURVE",
"11 387 CURVE SMOOTH",
"11 273 OFFCURVE",
"75 240 OFFCURVE",
"143 240 CURVE SMOOTH",
"210 240 OFFCURVE",
"276 274 OFFCURVE",
"276 387 CURVE SMOOTH",
"276 497 OFFCURVE",
"210 535 OFFCURVE",
"143 535 CURVE SMOOTH"
);
},
{
closed = 1;
nodes = (
"175 465 OFFCURVE",
"190 454 OFFCURVE",
"190 387 CURVE SMOOTH",
"190 318 OFFCURVE",
"175 310 OFFCURVE",
"143 310 CURVE SMOOTH",
"111 310 OFFCURVE",
"96 322 OFFCURVE",
"96 387 CURVE SMOOTH",
"96 453 OFFCURVE",
"113 465 OFFCURVE",
"143 465 CURVE SMOOTH"
);
}
);
width = 600;
}
);
},
{
glyphname = _multiply;
lastChange = "2016-11-10 10:53:44 +0000";
layers = (
{
layerId = "7EBE3D46-E53E-419E-A3EC-596DA2EA1E0D";
name = Regular;
paths = (
{
closed = 1;
nodes = (
"413 280 LINE SMOOTH",
"198 509 LINE",
"136 456 LINE",
"354 221 LINE SMOOTH"
);
}
);
width = 561;
}
);
},
{
glyphname = _less_equal;
lastChange = "2016-11-10 11:01:51 +0000";
layers = (
{
layerId = "7EBE3D46-E53E-419E-A3EC-596DA2EA1E0D";
name = Regular;
paths = (
{
closed = 1;
nodes = (
"490 414 LINE SMOOTH",
"105 606 LINE",
"82 606 LINE",
"82 518 LINE",
"382 381 LINE SMOOTH",
"490 382 LINE"
);
}
);
width = 600;
}
);
},
{
glyphname = _f_integral;
lastChange = "2017-01-31 11:14:50 +0000";
layers = (
{
layerId = "7EBE3D46-E53E-419E-A3EC-596DA2EA1E0D";
name = Regular;
paths = (
{
closed = 1;
nodes = (
"344 727 OFFCURVE",
"331 733 OFFCURVE",
"263 733 CURVE SMOOTH",
"176 733 OFFCURVE",
"127 671 OFFCURVE",
"127 595 CURVE SMOOTH",
"127 366 LINE",
"220 366 LINE",
"220 533 LINE SMOOTH",
"220 604 OFFCURVE",
"250 636 OFFCURVE",
"287 637 CURVE SMOOTH",
"322 638 OFFCURVE",
"342 629 OFFCURVE",
"377 612 CURVE",
"393 703 LINE"
);
}
);
width = 390;
}
);
},
{
glyphname = _circum_part;
lastChange = "2016-11-11 08:04:17 +0000";
layers = (
{
layerId = "7EBE3D46-E53E-419E-A3EC-596DA2EA1E0D";
name = Regular;
paths = (
{
closed = 1;
nodes = (
"261 263 LINE SMOOTH",
"350 157 LINE",
"438 157 LINE",
"438 173 LINE",
"294 341 LINE SMOOTH",
"262 341 LINE"
);
}
);
width = 600;
}
);
},
{
glyphname = _circle;
lastChange = "2016-11-10 11:34:50 +0000";
layers = (
{
layerId = "7EBE3D46-E53E-419E-A3EC-596DA2EA1E0D";
name = Regular;
paths = (
{
closed = 1;
nodes = (
"432 56 OFFCURVE",
"574 197 OFFCURVE",
"574 372 CURVE SMOOTH",
"574 546 OFFCURVE",
"432 688 OFFCURVE",
"258 688 CURVE SMOOTH",
"83 688 OFFCURVE",
"-58 546 OFFCURVE",
"-58 372 CURVE SMOOTH",
"-58 197 OFFCURVE",
"83 56 OFFCURVE",
"258 56 CURVE SMOOTH"
);
},
{
closed = 1;
nodes = (
"115 113 OFFCURVE",
"4 234 OFFCURVE",
"4 375 CURVE SMOOTH",
"4 517 OFFCURVE",
"115 633 OFFCURVE",
"257 633 CURVE SMOOTH",
"399 633 OFFCURVE",
"511 517 OFFCURVE",
"511 375 CURVE SMOOTH",
"511 234 OFFCURVE",
"399 113 OFFCURVE",
"257 113 CURVE SMOOTH"
);
}
);
width = 515;
}
);
},
{
glyphname = _acute;
lastChange = "2016-11-10 12:36:54 +0000";
layers = (
{
layerId = "7EBE3D46-E53E-419E-A3EC-596DA2EA1E0D";
name = Regular;
paths = (
{
closed = 1;
nodes = (
"283 728 OFFCURVE",
"242 646 OFFCURVE",
"214 590 CURVE",
"291 590 LINE SMOOTH",
"292 590 OFFCURVE",
"367 715 OFFCURVE",
"378 767 CURVE",
"294 768 LINE"
);
}
);
width = 600;
}
);
},
{
glyphname = _breve;
lastChange = "2016-12-21 09:52:44 +0000";
layers = (
{
layerId = "7EBE3D46-E53E-419E-A3EC-596DA2EA1E0D";
name = Regular;
paths = (
{
closed = 1;
nodes = (
"100 759 OFFCURVE",
"79 586 OFFCURVE",
"289 586 CURVE SMOOTH",
"379 586 OFFCURVE",
"378 669 OFFCURVE",
"267 669 CURVE",
"226 669 OFFCURVE",
"197 708 OFFCURVE",
"197 759 CURVE",
"100 759 LINE SMOOTH"
);
}
);
width = 600;
}
);
},
{
glyphname = _i_dotless_full;
lastChange = "2017-01-26 23:10:05 +0000";
layers = (
{
components = (
{
name = _I_small;
transform = "{1, 0, 0, 1, 101, 143}";
},
{
name = _I_small;
transform = "{1, 0, 0, 1, 101, 272}";
},
{
name = _I_small;
transform = "{1, 0, 0, 1, 101, 332}";
},
{
name = _I_small;
transform = "{1, 0, 0, 1, 101, 0}";
}
);
hints = (
{
horizontal = 1;
place = "{420.000000, 80.000000}";
}
);
layerId = "7EBE3D46-E53E-419E-A3EC-596DA2EA1E0D";
name = Regular;
paths = (
{
closed = 1;
nodes = (
"80 420 LINE",
"222 420 LINE",
"222 500 LINE",
"80 500 LINE"
);
}
);
width = 323;
}
);
},
{
glyphname = _slash_diacritics;
lastChange = "2016-11-10 18:48:03 +0000";
layers = (
{
layerId = "7EBE3D46-E53E-419E-A3EC-596DA2EA1E0D";
name = Regular;
paths = (
{
closed = 1;
nodes = (
"310 379 LINE",
"308 466 LINE",
"13 357 LINE SMOOTH",
"12 268 LINE SMOOTH"
);
}
);
width = 515;
}
);
},
{
glyphname = _cedilla_fragment;
lastChange = "2016-11-11 08:02:20 +0000";
layers = (
{
layerId = "7EBE3D46-E53E-419E-A3EC-596DA2EA1E0D";
name = Regular;
paths = (
{
closed = 1;
nodes = (
"297 311 LINE",
"329 291 OFFCURVE",
"366 272 OFFCURVE",
"421 273 CURVE SMOOTH",
"478 274 OFFCURVE",
"515 292 OFFCURVE",
"552 333 CURVE",
"531 422 LINE",
"492 389 OFFCURVE",
"454 371 OFFCURVE",
"415 370 CURVE SMOOTH",
"370 370 OFFCURVE",
"335 396 OFFCURVE",
"297 421 CURVE"
);
}
);
width = 600;
}
);
},
{
glyphname = _ve_cyr;
lastChange = "2016-11-12 18:03:43 +0000";
layers = (
{
layerId = "7EBE3D46-E53E-419E-A3EC-596DA2EA1E0D";
name = Regular;
paths = (
{
closed = 1;
nodes = (
"109 435 LINE",
"120 435 OFFCURVE",
"244 435 OFFCURVE",
"255 435 CURVE SMOOTH",
"415 437 OFFCURVE",
"470 484 OFFCURVE",
"470 569 CURVE SMOOTH",
"470 666 OFFCURVE",
"399 703 OFFCURVE",
"261 702 CURVE SMOOTH",
"112 701 LINE",
"127 620 LINE",
"242 620 LINE SMOOTH",
"330 620 OFFCURVE",
"366 603 OFFCURVE",
"366 558 CURVE SMOOTH",
"366 514 OFFCURVE",
"344 484 OFFCURVE",
"259 484 CURVE SMOOTH",
"120 484 LINE"
);
}
);
width = 556;
}
);
},
{
glyphname = _three;
lastChange = "2016-11-12 18:08:34 +0000";
layers = (
{
layerId = "7EBE3D46-E53E-419E-A3EC-596DA2EA1E0D";
name = Regular;
paths = (
{
closed = 1;
nodes = (
"469 363 OFFCURVE",
"469 522 CURVE SMOOTH",
"469 628 OFFCURVE",
"390 710 OFFCURVE",
"245 710 CURVE SMOOTH",
"199 710 OFFCURVE",
"133 701 OFFCURVE",
"81 665 CURVE",
"99 575 LINE",
"140 596 OFFCURVE",
"188 616 OFFCURVE",
"244 616 CURVE SMOOTH",
"334 616 OFFCURVE",
"367 562 OFFCURVE",
"367 514 CURVE SMOOTH",
"367 464 OFFCURVE",
"330 428 OFFCURVE",
"274 409 CURVE SMOOTH",
"262 404 OFFCURVE",
"191 397 OFFCURVE",
"172 397 CURVE",
"172 320 LINE",
"302 335 OFFCURVE"
);
}
);
width = 539;
}
);
},
{
glyphname = _ze_cyr;
lastChange = "2016-11-12 18:12:27 +0000";
layers = (
{
layerId = "7EBE3D46-E53E-419E-A3EC-596DA2EA1E0D";
name = Regular;
paths = (
{
closed = 1;
nodes = (
"469 243 OFFCURVE",
"469 370 CURVE SMOOTH",
"469 486 OFFCURVE",
"390 517 OFFCURVE",
"285 517 CURVE SMOOTH",
"187 517 OFFCURVE",
"153 500 OFFCURVE",
"101 482 CURVE",
"119 397 LINE",
"160 418 OFFCURVE",
"207 423 OFFCURVE",
"267 423 CURVE SMOOTH",
"334 423 OFFCURVE",
"367 409 OFFCURVE",
"367 371 CURVE SMOOTH",
"367 324 OFFCURVE",
"307 287 OFFCURVE",
"172 304 CURVE",
"172 227 LINE",
"281 242 OFFCURVE"
);
}
);
width = 539;
}
);
},
{
glyphname = _D_cyr;
lastChange = "2016-11-12 23:17:21 +0000";
layers = (
{
layerId = "7EBE3D46-E53E-419E-A3EC-596DA2EA1E0D";
name = Regular;
paths = (
{
closed = 1;
nodes = (
"501 0 LINE",
"560 0 LINE",
"560 -134 LINE",
"652 -134 LINE",
"651 82 LINE",
"496 81 LINE"
);
}
);
width = 600;
}
);
},
{
glyphname = _k_cyr;
lastChange = "2016-12-28 12:32:50 +0000";
layers = (
{
layerId = "7EBE3D46-E53E-419E-A3EC-596DA2EA1E0D";
name = Regular;
paths = (
{
closed = 1;
nodes = (
"121 227 LINE",
"249 226 LINE SMOOTH",
"274 262 LINE",
"463 498 LINE",
"347 498 LINE",
"194 295 LINE",
"138 294 LINE SMOOTH"
);
}
);
width = 600;
}
);
},
{
glyphname = _d_curl;
lastChange = "2017-01-08 10:11:55 +0000";
layers = (
{
layerId = "7EBE3D46-E53E-419E-A3EC-596DA2EA1E0D";
name = Regular;
paths = (
{
closed = 1;
nodes = (
"251 511 LINE",
"168 511 OFFCURVE",
"137 443 OFFCURVE",
"98 363 CURVE",
"127 303 LINE",
"178 404 OFFCURVE",
"193 419 OFFCURVE",
"251 419 CURVE"
);
}
);
width = 494;
}
);
},
{
glyphname = _Z;
lastChange = "2017-03-03 08:03:00 +0000";
layers = (
{
layerId = "7EBE3D46-E53E-419E-A3EC-596DA2EA1E0D";
name = Regular;
paths = (
{
closed = 1;
nodes = (
"364 291 LINE SMOOTH",
"589 687 LINE",
"589 700 LINE",
"501 700 LINE",
"332 403 LINE SMOOTH",
"332 291 LINE"
);
}
);
width = 661;
}
);
},
{
glyphname = _c;
lastChange = "2016-12-27 12:33:16 +0000";
layers = (
{
layerId = "7EBE3D46-E53E-419E-A3EC-596DA2EA1E0D";
name = Regular;
paths = (
{
closed = 1;
nodes = (
"321 575 OFFCURVE",
"363 556 OFFCURVE",
"398 537 CURVE",
"416 630 LINE",
"378 653 OFFCURVE",
"331 665 OFFCURVE",
"275 665 CURVE",
"276 575 LINE"
);
}
);
width = 506;
}
);
},
{
glyphname = _quotes;
lastChange = "2016-12-03 16:28:45 +0000";
layers = (
{
components = (
{
name = _dot;
transform = "{1, 0, 0, 1, 23, -608}";
}
);
layerId = "7EBE3D46-E53E-419E-A3EC-596DA2EA1E0D";
name = Regular;
paths = (
{
closed = 1;
nodes = (
"155 -13 OFFCURVE",
"150 -36 OFFCURVE",
"125 -80 CURVE",
"161 -91 LINE SMOOTH",
"162 -91 OFFCURVE",
"228 -18 OFFCURVE",
"230 59 CURVE",
"125 -4 LINE"
);
}
);
width = 600;
}
);
},
{
glyphname = _yQ;
lastChange = "2016-12-04 15:23:19 +0000";
layers = (
{
layerId = "7EBE3D46-E53E-419E-A3EC-596DA2EA1E0D";
name = Regular;
paths = (
{
closed = 1;
nodes = (
"224 -12 LINE",
"211 -48 LINE SMOOTH",
"188 -111 OFFCURVE",
"156 -122 OFFCURVE",
"114 -108 CURVE",
"123 -200 LINE",
"200 -212 OFFCURVE",
"253 -172 OFFCURVE",
"283 -93 CURVE",
"313 -12 LINE"
);
}
);
width = 511;
}
);
},
{
glyphname = _m_cyr;
lastChange = "2016-12-19 13:41:22 +0000";
layers = (
{
layerId = "7EBE3D46-E53E-419E-A3EC-596DA2EA1E0D";
name = Regular;
paths = (
{
closed = 1;
nodes = (
"165 500 LINE SMOOTH",
"20 24 LINE",
"20 1 LINE",
"118 1 LINE",
"194 302 LINE",
"213 302 LINE SMOOTH",
"187 500 LINE"
);
}
);
width = 682;
}
);
},
{
glyphname = _m_cyr_2;
lastChange = "2016-12-19 13:47:00 +0000";
layers = (
{
layerId = "7EBE3D46-E53E-419E-A3EC-596DA2EA1E0D";
name = Regular;
paths = (
{
closed = 1;
nodes = (
"149 400 LINE SMOOTH",
"373 141 LINE",
"406 141 LINE",
"402 273 LINE",
"383 273 LINE",
"182 500 LINE SMOOTH",
"150 500 LINE"
);
}
);
width = 682;
}
);
},
{
glyphname = _u_cyr;
lastChange = "2016-12-21 07:33:48 +0000";
layers = (
{
layerId = "7EBE3D46-E53E-419E-A3EC-596DA2EA1E0D";
name = Regular;
paths = (
{
closed = 1;
nodes = (
"80 304 OFFCURVE",
"157 231 OFFCURVE",
"274 231 CURVE SMOOTH",
"310 231 OFFCURVE",
"345 240 OFFCURVE",
"374 250 CURVE",
"371 327 LINE",
"334 318 OFFCURVE",
"315 316 OFFCURVE",
"273 318 CURVE SMOOTH",
"228 320 OFFCURVE",
"172 341 OFFCURVE",
"172 414 CURVE SMOOTH",
"172 481 OFFCURVE",
"80 524 OFFCURVE",
"80 414 CURVE SMOOTH"
);
}
);
width = 499;
}
);
},
{
glyphname = _curve_cursive;
lastChange = "2017-02-23 12:18:45 +0000";
layers = (
{
layerId = "7EBE3D46-E53E-419E-A3EC-596DA2EA1E0D";
name = Regular;
paths = (
{
closed = 1;
nodes = (
"60 218 LINE SMOOTH",
"60 82 OFFCURVE",
"160 -5 OFFCURVE",
"275 -6 CURVE SMOOTH",
"275 -6 OFFCURVE",
"276 -6 OFFCURVE",
"276 -6 CURVE SMOOTH",
"343 -5 OFFCURVE",
"383 12 OFFCURVE",
"427 49 CURVE",
"382 128 LINE",
"339 93 OFFCURVE",
"312 84 OFFCURVE",
"276 84 CURVE SMOOTH",
"207 84 OFFCURVE",
"154 138 OFFCURVE",
"154 227 CURVE SMOOTH",
"154 247 LINE SMOOTH",
"154 328 OFFCURVE",
"60 316 OFFCURVE",
"60 257 CURVE SMOOTH"
);
}
);
width = 537;
}
);
},
{
glyphname = _ending_cursive;
lastChange = "2017-01-21 16:17:21 +0000";
layers = (
{
layerId = "7EBE3D46-E53E-419E-A3EC-596DA2EA1E0D";
name = Regular;
paths = (
{
closed = 1;
nodes = (
"280 -6 LINE",
"346 -6 OFFCURVE",
"392 21 OFFCURVE",
"427 59 CURVE",
"382 138 LINE",
"349 103 OFFCURVE",
"316 84 OFFCURVE",
"281 84 CURVE"
);
}
);
width = 537;
}
);
},
{
glyphname = _z;
lastChange = "2017-03-03 08:01:16 +0000";
layers = (
{
layerId = "7EBE3D46-E53E-419E-A3EC-596DA2EA1E0D";
name = Regular;
paths = (
{
closed = 1;
nodes = (
"448 499 LINE",
"354 499 LINE",
"180 202 LINE SMOOTH",
"170 90 LINE",
"202 90 LINE SMOOTH",
"448 487 LINE"
);
}
);
width = 481;
}
);
},
{
glyphname = _g_two_storey;
lastChange = "2017-01-09 15:53:22 +0000";
layers = (
{
layerId = "7EBE3D46-E53E-419E-A3EC-596DA2EA1E0D";
name = Regular;
paths = (
{
closed = 1;
nodes = (
"273 503 LINE",
"270 503 OFFCURVE",
"267 503 OFFCURVE",
"264 503 CURVE SMOOTH",
"124 503 OFFCURVE",
"62 425 OFFCURVE",
"60 329 CURVE SMOOTH",
"60 328 OFFCURVE",
"153 329 OFFCURVE",
"153 330 CURVE SMOOTH",
"153 377 OFFCURVE",
"185 413 OFFCURVE",
"265 413 CURVE SMOOTH",
"267 413 OFFCURVE",
"269 413 OFFCURVE",
"271 413 CURVE"
);
}
);
width = 538;
}
);
},
{
glyphname = _g_loop;
lastChange = "2016-12-28 14:10:42 +0000";
layers = (
{
layerId = "7EBE3D46-E53E-419E-A3EC-596DA2EA1E0D";
name = Regular;
paths = (
{
closed = 1;
nodes = (
"219 -156 LINE",
"222 -156 OFFCURVE",
"225 -156 OFFCURVE",
"228 -156 CURVE SMOOTH",
"358 -156 OFFCURVE",
"410 -102 OFFCURVE",
"412 -15 CURVE SMOOTH",
"412 -14 OFFCURVE",
"319 -14 OFFCURVE",
"319 -15 CURVE SMOOTH",
"319 -53 OFFCURVE",
"297 -75 OFFCURVE",
"227 -75 CURVE SMOOTH",
"225 -75 OFFCURVE",
"223 -75 OFFCURVE",
"221 -75 CURVE"
);
}
);
width = 538;
}
);
},
{
glyphname = _N;
lastChange = "2017-03-03 08:18:33 +0000";
layers = (
{
layerId = "7EBE3D46-E53E-419E-A3EC-596DA2EA1E0D";
name = Regular;
paths = (
{
closed = 1;
nodes = (
"471 215 LINE SMOOTH",
"86 700 LINE",
"70 700 LINE",
"70 487 LINE",
"154 476 LINE",
"456 94 LINE"
);
}
);
width = 618;
}
);
},
{
glyphname = _C_lowe;
lastChange = "2017-01-31 10:27:46 +0000";
layers = (
{
layerId = "7EBE3D46-E53E-419E-A3EC-596DA2EA1E0D";
name = Regular;
paths = (
{
closed = 1;
nodes = (
"60 268 LINE SMOOTH",
"60 72 OFFCURVE",
"180 -5 OFFCURVE",
"295 -6 CURVE SMOOTH",
"295 -6 OFFCURVE",
"296 -6 OFFCURVE",
"296 -6 CURVE SMOOTH",
"363 -5 OFFCURVE",
"413 12 OFFCURVE",
"457 49 CURVE",
"412 128 LINE",
"369 93 OFFCURVE",
"332 84 OFFCURVE",
"296 84 CURVE SMOOTH",
"227 84 OFFCURVE",
"154 128 OFFCURVE",
"154 277 CURVE SMOOTH",
"154 327 LINE SMOOTH",
"154 408 OFFCURVE",
"60 396 OFFCURVE",
"60 337 CURVE SMOOTH"
);
}
);
width = 492;
}
);
},
{
glyphname = _A;
lastChange = "2017-02-21 06:26:19 +0000";
layers = (
{
layerId = "7EBE3D46-E53E-419E-A3EC-596DA2EA1E0D";
name = Regular;
paths = (
{
closed = 1;
nodes = (
"312 699 LINE",
"278 699 LINE",
"10 0 LINE",
"109 0 LINE",
"296 506 LINE",
"481 0 LINE",
"580 0 LINE"
);
}
);
width = 590;
}
);
},
{
glyphname = _P;
lastChange = "2017-02-03 07:31:38 +0000";
layers = (
{
layerId = "7EBE3D46-E53E-419E-A3EC-596DA2EA1E0D";
name = Regular;
paths = (
{
closed = 1;
nodes = (
"480 608 OFFCURVE",
"389 700 OFFCURVE",
"251 702 CURVE SMOOTH",
"181 703 OFFCURVE",
"110 695 OFFCURVE",
"70 689 CURVE",
"70 598 LINE",
"110 613 OFFCURVE",
"186 622 OFFCURVE",
"242 620 CURVE",
"339 620 OFFCURVE",
"376 547 OFFCURVE",
"376 481 CURVE SMOOTH",
"375 415 OFFCURVE",
"339 342 OFFCURVE",
"242 342 CURVE",
"186 340 OFFCURVE",
"110 349 OFFCURVE",
"70 364 CURVE",
"70 273 LINE",
"110 267 OFFCURVE",
"181 259 OFFCURVE",
"251 260 CURVE SMOOTH",
"389 262 OFFCURVE",
"480 354 OFFCURVE",
"480 478 CURVE SMOOTH",
"480 479 OFFCURVE",
"480 480 OFFCURVE",
"480 481 CURVE",
"480 484 LINE"
);
}
